<svg width="396" height="340" viewBox="0 0 396 340" fill="none" xmlns="http://www.w3.org/2000/svg">
<path opacity="0.2" fill-rule="evenodd" clip-rule="evenodd" d="M187.898 6.80437C132.954 -5.0369 87.4613 -4.68303 47.4935 34.6246C7.38391 74.0715 -3.05615 108.232 0.719269 164.197C4.22537 216.169 23.8915 267.785 64.7768 300.361C102.383 330.323 153.692 320.656 201.74 324.36C257.015 328.621 318.673 357.974 361.729 323.251C406.019 287.532 399.108 240.416 386.494 185.122C361.729 130.438 356.021 142.678 321.631 108.443C287.196 74.1629 235.523 17.0683 187.898 6.80437Z" fill="#2C9CF0"/>
<g clip-path="url(#clip0_344_6698)">
<path d="M56.9589 86.673C56.9589 86.673 55.5252 75.7919 65.9992 79.3122C76.4732 82.8325 73.0602 92.7956 69.0674 89.3868C65.0746 85.978 72.5667 74.4146 80.5811 79.5634C88.5955 84.7123 86.8033 94.7029 81.1184 95.4399C75.4335 96.1768 84.5601 83.8074 91.7218 91.4465C98.8836 99.0855 83.247 113.014 76.8527 107.893C70.4585 102.772 75.4622 94.5069 76.9966 99.5442C78.5304 104.582 74.3937 109.521 63.0521 109.326C51.7105 109.13 56.8732 91.6815 60.8372 96.7608C64.8018 101.84 58.2199 107.572 50.2193 101.589C42.2187 95.6054 51.3454 83.2354 56.9589 86.673Z" fill="white"/>
<path d="M63.6968 110.058L63.0402 110.052C59.3233 109.989 56.706 108.084 55.7838 104.802C53.8272 104.555 51.7646 103.652 49.7841 102.171C46.6487 99.8255 45.5874 96.2668 46.8718 92.406C48.1885 88.4515 51.6908 85.3528 54.849 85.3528C55.3041 85.3528 55.7442 85.4139 56.1669 85.535C56.1525 84.0204 56.3852 81.4427 57.922 79.6924C59.6369 77.7335 62.4658 77.3564 66.2314 78.6233C67.6842 79.112 68.9578 79.7464 70.0263 80.5139C71.8281 78.6131 74.1276 77.5356 76.4259 77.5356C77.9807 77.5356 79.5115 78.0123 80.9757 78.9513C84.4385 81.1771 86.5413 84.599 86.714 88.2225C88.7467 88.28 90.6085 89.1968 92.2526 90.9501C94.4814 93.3276 94.8927 96.5235 93.4105 99.9466C91.1547 105.154 84.9949 109.723 80.2268 109.724H80.2256C78.7344 109.724 77.4465 109.298 76.3995 108.46C75.9111 108.071 75.4592 107.638 75.0492 107.167C72.544 109.061 68.6424 110.058 63.6968 110.058ZM57.3242 104.859C57.9711 106.692 59.5091 108.538 63.0654 108.6L63.6968 108.605C69.3997 108.605 72.5141 107.267 74.1864 105.997C72.589 103.414 72.7107 100.589 73.6006 98.8404C74.1138 97.8294 74.8591 97.2496 75.6464 97.2496C76.1729 97.2496 77.1388 97.5206 77.6923 99.332C78.4598 101.856 77.8908 104.322 76.1315 106.198C76.4751 106.598 76.869 106.976 77.3061 107.326C78.0892 107.953 79.0708 108.271 80.2244 108.271H80.2256C84.4109 108.27 90.0586 104.027 92.0757 99.3686C92.9524 97.3461 93.51 94.4152 91.1919 91.9425C89.826 90.486 88.3078 89.7239 86.6774 89.6741C86.3357 93.1537 84.1579 95.7782 81.2114 96.1595C79.2878 96.4149 78.6505 95.4046 78.6139 94.4758C78.5299 92.4257 81.4854 88.981 85.263 88.328C85.1257 85.1615 83.2639 82.1496 80.1885 80.1739C77.1652 78.2282 73.6965 78.8068 71.1488 81.4409C73.6227 83.7962 74.0826 86.6923 73.3931 88.626C72.9122 89.9745 71.8791 90.8122 70.7002 90.8128C69.9921 90.8128 69.266 90.5106 68.5962 89.9392C66.3915 88.057 67.1038 84.3832 69.0939 81.634C68.1603 80.9786 67.0438 80.43 65.7673 80.0012C62.6067 78.9387 60.3354 79.142 59.0157 80.647C57.2024 82.7097 57.6737 86.54 57.6791 86.5784C57.7145 86.856 57.5886 87.1294 57.3529 87.2823C57.1203 87.4346 56.8181 87.4382 56.58 87.2925C56.0593 86.9721 55.4592 86.8039 54.8478 86.8068C52.321 86.8068 49.3601 89.5248 48.2497 92.8659C47.7418 94.3931 46.9587 98.2444 50.6541 101.009C52.2689 102.217 53.9226 102.993 55.4888 103.287C55.1668 100.469 56.029 97.7221 57.1659 96.3112C57.8003 95.5245 58.539 95.109 59.3053 95.109C59.8347 95.109 60.6304 95.3183 61.4093 96.3148C62.8178 98.1196 63.1374 100.155 62.2877 101.898C61.4483 103.617 59.5715 104.727 57.3242 104.859ZM75.6464 98.7025C75.5115 98.7025 75.1895 98.9189 74.8957 99.4981C74.2445 100.778 74.1384 102.951 75.2729 104.98C76.5225 103.514 76.89 101.688 76.3012 99.7554C76.0679 98.9891 75.7753 98.7025 75.6464 98.7025ZM59.3059 96.5606C58.9995 96.5606 58.6421 96.7957 58.2985 97.222C57.3296 98.4236 56.619 100.993 56.9734 103.418C58.8136 103.389 60.3426 102.568 60.9812 101.26C61.5796 100.035 61.3176 98.5579 60.2634 97.2082C60.0338 96.9126 59.6806 96.5606 59.3059 96.5606ZM85.1982 89.8198C82.1522 90.4956 80.02 93.2928 80.0655 94.417C80.0709 94.5562 80.0781 94.7456 80.6574 94.7456C80.7707 94.7456 80.893 94.7372 81.0249 94.7199C83.2051 94.4368 84.8396 92.4719 85.1982 89.8198ZM70.2158 82.5592C68.4991 84.9516 68.1717 87.6654 69.5388 88.8341C70.5731 89.7173 71.5763 89.3929 72.026 88.1379C72.5482 86.6749 72.1591 84.4503 70.2158 82.5592Z" fill="#241726"/>
<path d="M311.725 208.545C311.725 208.545 310.291 197.664 320.765 201.184C331.239 204.705 327.826 214.667 323.833 211.258C319.84 207.849 327.333 196.286 335.347 201.435C343.361 206.583 341.569 216.574 335.884 217.311C330.199 218.049 339.326 205.679 346.488 213.318C353.649 220.957 338.013 234.885 331.619 229.764C325.224 224.644 330.228 216.378 331.763 221.415C333.296 226.453 329.16 231.392 317.818 231.197C306.476 231.001 311.639 213.553 315.603 218.632C319.568 223.711 312.986 229.444 304.985 223.46C296.985 217.478 306.111 205.108 311.725 208.545Z" fill="white"/>
<path d="M318.462 231.93L317.805 231.925C314.087 231.861 311.471 229.956 310.549 226.674C308.592 226.427 306.529 225.524 304.549 224.043C301.414 221.698 300.352 218.139 301.637 214.278C302.953 210.324 306.456 207.225 309.614 207.225C310.069 207.225 310.509 207.286 310.932 207.407C310.917 205.893 311.152 203.315 312.687 201.563C314.405 199.609 317.226 199.23 320.996 200.495C322.449 200.984 323.723 201.618 324.791 202.385C326.593 200.485 328.893 199.407 331.191 199.407C332.746 199.407 334.276 199.884 335.741 200.823C339.203 203.049 341.306 206.471 341.479 210.094C343.512 210.152 345.375 211.068 347.017 212.822C349.247 215.2 349.659 218.396 348.175 221.819C345.92 227.026 339.758 231.595 334.992 231.595C333.499 231.595 332.211 231.17 331.164 230.331C330.676 229.942 330.224 229.509 329.814 229.038C327.309 230.933 323.407 231.93 318.462 231.93ZM312.089 226.73C312.736 228.564 314.274 230.41 317.83 230.471L318.462 230.477C324.165 230.477 327.279 229.139 328.951 227.868C327.354 225.285 327.476 222.461 328.365 220.712C328.879 219.701 329.624 219.121 330.411 219.121C330.938 219.121 331.904 219.392 332.457 221.204C333.225 223.727 332.656 226.194 330.896 228.07C331.24 228.469 331.634 228.847 332.071 229.198C332.854 229.824 333.836 230.143 334.991 230.142C339.176 230.142 344.824 225.9 346.841 221.242C347.717 219.219 348.276 216.288 345.957 213.815C344.592 212.358 343.073 211.596 341.442 211.546C341.101 215.026 338.924 217.65 335.977 218.032C334.074 218.286 333.417 217.279 333.378 216.348C333.296 214.299 336.25 210.854 340.027 210.2C339.89 207.034 338.028 204.022 334.953 202.046C331.931 200.103 328.463 200.678 325.913 203.313C328.387 205.668 328.848 208.564 328.157 210.498C327.677 211.847 326.645 212.684 325.466 212.685H325.465C324.759 212.685 324.031 212.383 323.361 211.811C321.156 209.93 321.869 206.255 323.859 203.506C322.925 202.851 321.809 202.302 320.532 201.873C317.366 200.809 315.098 201.017 313.778 202.522C311.96 204.594 312.439 208.411 312.444 208.449C312.462 208.585 312.441 208.724 312.384 208.849C312.327 208.973 312.235 209.079 312.12 209.154C312.005 209.229 311.871 209.27 311.734 209.271C311.596 209.273 311.461 209.236 311.344 209.164C310.824 208.844 310.223 208.675 309.612 208.678C307.085 208.678 304.124 211.396 303.014 214.737C302.506 216.265 301.723 220.116 305.418 222.88C307.033 224.088 308.687 224.865 310.253 225.159C309.931 222.34 310.793 219.595 311.93 218.183C312.565 217.396 313.303 216.981 314.07 216.981C314.6 216.981 315.396 217.19 316.175 218.186C317.582 219.991 317.903 222.026 317.051 223.769C316.213 225.489 314.336 226.598 312.089 226.73ZM330.411 220.574C330.276 220.574 329.954 220.791 329.661 221.37C329.009 222.65 328.903 224.822 330.038 226.851C331.287 225.385 331.655 223.559 331.066 221.627C330.833 220.861 330.54 220.574 330.411 220.574ZM314.071 218.433C313.765 218.433 313.408 218.668 313.064 219.094C312.095 220.296 311.386 222.865 311.739 225.29C313.579 225.261 315.11 224.44 315.748 223.131C316.345 221.906 316.084 220.43 315.03 219.08C314.8 218.785 314.447 218.433 314.071 218.433ZM339.963 211.692C336.919 212.369 334.785 215.166 334.83 216.289C334.836 216.428 334.845 216.618 335.423 216.618C335.537 216.618 335.659 216.609 335.791 216.592C337.97 216.309 339.606 214.344 339.963 211.692ZM324.981 204.431C323.264 206.824 322.937 209.538 324.304 210.706C325.338 211.588 326.341 211.265 326.791 210.01C327.313 208.546 326.926 206.322 324.981 204.431Z" fill="#241726"/>
<path d="M224.344 292.571L223.687 292.565C219.969 292.502 217.353 290.597 216.431 287.314C214.474 287.067 212.412 286.164 210.431 284.683C207.296 282.338 206.235 278.78 207.519 274.919C208.836 270.964 212.338 267.866 215.496 267.866C215.951 267.866 216.391 267.927 216.814 268.048C216.8 266.533 217.034 263.956 218.569 262.204C220.287 260.249 223.109 259.87 226.879 261.136C228.331 261.624 229.605 262.259 230.674 263.026C232.475 261.125 234.775 260.048 237.073 260.048C238.628 260.048 240.159 260.525 241.623 261.464C245.086 263.689 247.189 267.111 247.361 270.735C249.394 270.792 251.257 271.708 252.9 273.462C255.13 275.841 255.541 279.036 254.058 282.46C251.802 287.667 245.64 292.235 240.874 292.235C239.382 292.236 238.094 291.81 237.047 290.972C236.558 290.583 236.106 290.15 235.696 289.679C233.191 291.574 229.29 292.571 224.344 292.571ZM217.971 287.371C218.618 289.204 220.156 291.051 223.713 291.112L224.344 291.117C230.047 291.117 233.161 289.779 234.834 288.509C233.236 285.926 233.358 283.102 234.248 281.353C234.761 280.342 235.506 279.762 236.294 279.762C236.82 279.762 237.786 280.033 238.34 281.844C239.107 284.368 238.538 286.834 236.779 288.71C237.122 289.11 237.516 289.488 237.953 289.838C238.736 290.465 239.718 290.783 240.873 290.783C245.058 290.783 250.706 286.541 252.723 281.883C253.6 279.86 254.158 276.929 251.839 274.455C250.474 272.999 248.955 272.237 247.325 272.187C246.983 275.666 244.806 278.29 241.86 278.672C239.956 278.927 239.299 277.919 239.26 276.989C239.178 274.939 242.132 271.495 245.91 270.841C245.772 267.674 243.91 264.662 240.835 262.687C237.813 260.743 234.345 261.319 231.795 263.954C234.269 266.309 234.73 269.205 234.04 271.139C233.559 272.487 232.527 273.325 231.349 273.326H231.347C230.641 273.326 229.913 273.023 229.243 272.452C227.039 270.571 227.751 266.896 229.741 264.147C228.808 263.491 227.691 262.943 226.414 262.514C223.248 261.449 220.981 261.658 219.66 263.163C217.842 265.235 218.321 269.052 218.326 269.09C218.344 269.226 218.324 269.365 218.266 269.489C218.209 269.614 218.117 269.72 218.002 269.795C217.887 269.87 217.753 269.91 217.616 269.912C217.479 269.914 217.344 269.877 217.227 269.805C216.706 269.484 216.106 269.316 215.494 269.319C212.968 269.319 210.007 272.037 208.896 275.378C208.388 276.905 207.605 280.757 211.301 283.521C212.915 284.729 214.569 285.505 216.135 285.799C215.813 282.981 216.676 280.236 217.812 278.823C218.447 278.037 219.186 277.621 219.952 277.621C220.483 277.621 221.278 277.83 222.057 278.827C223.464 280.632 223.785 282.667 222.934 284.41C222.095 286.13 220.219 287.239 217.971 287.371ZM236.294 281.215C236.159 281.215 235.837 281.431 235.543 282.01C234.892 283.291 234.786 285.463 235.92 287.492C237.17 286.026 237.537 284.2 236.948 282.268C236.715 281.501 236.423 281.215 236.294 281.215ZM219.954 279.073C219.647 279.073 219.29 279.309 218.946 279.735C217.977 280.937 217.268 283.506 217.621 285.931C219.461 285.902 220.992 285.08 221.63 283.772C222.227 282.547 221.967 281.07 220.912 279.72C220.683 279.425 220.33 279.073 219.954 279.073ZM245.845 272.333C242.801 273.01 240.667 275.806 240.713 276.93C240.718 277.068 240.727 277.258 241.306 277.258C241.419 277.258 241.541 277.25 241.673 277.233C243.852 276.95 245.488 274.985 245.845 272.333ZM230.863 265.072C229.146 267.464 228.819 270.178 230.186 271.347C231.22 272.228 232.223 271.906 232.673 270.651C233.195 269.187 232.808 266.963 230.863 265.072Z" fill="#241726"/>
<path d="M81.7079 275.259C81.7079 275.259 80.2743 264.378 90.7482 267.898C101.222 271.418 97.8092 281.382 93.8164 277.973C89.8236 274.564 97.3158 263 105.33 268.149C113.345 273.298 111.552 283.289 105.867 284.026C100.182 284.763 109.309 272.393 116.471 280.032C123.633 287.672 107.996 301.6 101.602 296.479C95.2069 291.358 100.211 283.093 101.746 288.13C103.279 293.167 99.1428 298.107 87.8012 297.912C76.4595 297.716 81.6222 280.267 85.5862 285.347C89.5508 290.426 82.9689 296.158 74.9683 290.175C66.9677 284.192 76.0944 271.822 81.7079 275.259Z" fill="white"/>
<path d="M88.4446 298.644L87.7881 298.639C84.0711 298.575 81.4538 296.67 80.5328 293.388C78.5763 293.141 76.5136 292.238 74.5331 290.757C71.3977 288.412 70.3364 284.853 71.6208 280.993C72.9357 277.038 76.4399 273.939 79.5968 273.939C80.0519 273.939 80.492 274 80.9147 274.121C80.9003 272.606 81.1348 270.029 82.671 268.278C84.3859 266.324 87.2106 265.943 90.9804 267.209C92.4332 267.698 93.7068 268.332 94.7753 269.1C96.5771 267.199 98.8766 266.122 101.174 266.122C102.73 266.122 104.261 266.599 105.724 267.538C109.186 269.763 111.29 273.185 111.462 276.808C113.495 276.866 115.358 277.783 117.002 279.537C119.23 281.915 119.642 285.111 118.158 288.534C115.902 293.741 109.742 298.31 104.975 298.31C103.483 298.31 102.195 297.885 101.148 297.046C100.66 296.657 100.208 296.224 99.7976 295.753C97.2931 297.647 93.3914 298.644 88.4446 298.644ZM82.072 293.445C82.7202 295.278 84.257 297.126 87.8132 297.186L88.4446 297.192C94.1475 297.192 97.2631 295.854 98.9342 294.583C97.338 291.999 97.4604 289.177 98.3484 287.427C98.8616 286.416 99.6082 285.836 100.394 285.836C100.921 285.836 101.888 286.107 102.44 287.919C103.209 290.442 102.639 292.909 100.879 294.785C101.236 295.196 101.63 295.573 102.055 295.913C102.838 296.539 103.82 296.858 104.975 296.857C109.158 296.857 114.806 292.615 116.824 287.957C117.7 285.934 118.259 283.003 115.94 280.53C114.575 279.073 113.057 278.31 111.425 278.261C111.083 281.74 108.907 284.365 105.96 284.747C105.777 284.771 105.591 284.784 105.406 284.784C103.95 284.784 103.395 283.895 103.362 283.063C103.28 281.013 106.233 277.568 110.013 276.915C109.875 273.748 108.012 270.736 104.936 268.762C101.914 266.818 98.4443 267.396 95.8978 270.028C98.3718 272.383 98.8317 275.28 98.1421 277.214C97.66 278.562 96.6281 279.4 95.4493 279.4H95.4481C94.7417 279.4 94.0138 279.098 93.344 278.527C91.1411 276.645 91.8528 272.971 93.8435 270.222C92.9099 269.566 91.7935 269.017 90.5169 268.588C87.3515 267.523 85.085 267.732 83.7611 269.238C81.9437 271.311 82.4216 275.127 82.4276 275.165C82.4459 275.302 82.4253 275.44 82.368 275.565C82.3107 275.69 82.2191 275.796 82.1039 275.871C81.9887 275.946 81.8546 275.986 81.7172 275.988C81.5799 275.99 81.4448 275.952 81.3279 275.88C80.8071 275.56 80.207 275.392 79.5956 275.395C77.0688 275.395 74.1098 278.113 72.9975 281.454C72.4896 282.981 71.7077 286.832 75.4037 289.595C77.0185 290.803 78.671 291.58 80.2384 291.874C79.9164 289.055 80.7786 286.309 81.9155 284.898C82.5499 284.112 83.2886 283.696 84.0549 283.696C84.5843 283.696 85.38 283.905 86.1589 284.902C87.5662 286.707 87.887 288.742 87.0356 290.484C86.1961 292.204 84.3187 293.313 82.072 293.445ZM100.394 287.289C100.261 287.289 99.9391 287.505 99.6435 288.085C98.9936 289.365 98.8874 291.537 100.022 293.566C101.272 292.1 101.638 290.274 101.05 288.342C100.817 287.575 100.523 287.289 100.394 287.289ZM84.0549 285.147C83.7485 285.147 83.3893 285.382 83.0464 285.809C82.0786 287.01 81.368 289.579 81.7212 292.005C83.5614 291.975 85.0922 291.153 85.7302 289.846C86.3274 288.621 86.0666 287.144 85.0125 285.795C84.7828 285.499 84.4297 285.147 84.0549 285.147ZM109.947 278.406C106.901 279.083 104.769 281.88 104.815 283.004C104.82 283.142 104.827 283.332 105.406 283.332C105.519 283.332 105.642 283.323 105.774 283.306C107.954 283.023 109.589 281.058 109.947 278.406ZM94.9648 271.145C93.2481 273.538 92.9189 276.253 94.2878 277.421C95.3222 278.304 96.3277 277.979 96.7732 276.724C97.2973 275.261 96.9081 273.036 94.9648 271.145ZM327.775 63.5777C327.637 63.5781 327.502 63.5391 327.385 63.4653C327.268 63.3914 327.175 63.2858 327.116 63.1608C327.058 63.0358 327.036 62.8966 327.053 62.7597C327.071 62.6227 327.127 62.4936 327.216 62.3875C327.577 61.9042 329.728 58.1441 330.692 56.1893C329.124 56.8165 326.265 58.1321 323.68 59.3918C323.595 59.4336 323.502 59.458 323.406 59.4638C323.311 59.4695 323.216 59.4565 323.126 59.4254C323.036 59.3943 322.953 59.3457 322.881 59.2825C322.81 59.2193 322.752 59.1427 322.71 59.057C322.668 58.9712 322.644 58.8782 322.638 58.783C322.632 58.6878 322.645 58.5925 322.676 58.5024C322.707 58.4123 322.756 58.3291 322.819 58.2578C322.882 58.1864 322.959 58.1282 323.045 58.0865C331.879 53.7789 332.095 54.1141 332.478 54.7341C333.133 55.793 328.388 63.2497 328.334 63.3151C328.266 63.3974 328.181 63.4637 328.084 63.5091C327.987 63.5545 327.882 63.5779 327.775 63.5777Z" fill="#241726"/>
<path d="M317.41 66.1512C317.41 66.1512 315.225 55.1243 321.45 55.6658C330.073 56.4159 339.042 75.7299 325.284 83.8654C311.525 92.0009 302.935 81.1684 302.935 81.1684L310.466 77.3315C310.466 77.3315 303.372 73.6235 302.803 69.2721C302.234 64.9208 307.696 67.5105 307.696 67.5105C307.696 67.5105 299.896 59.1034 304.172 57.7254C308.448 56.3475 317.41 66.1512 317.41 66.1512Z" fill="#FDA220"/>
<path d="M323.143 63.5314C321.685 63.5314 319.933 61.9569 319.383 61.4232C319.245 61.2891 319.165 61.1057 319.162 60.9131C319.159 60.7206 319.232 60.5346 319.366 60.3961C319.5 60.2582 319.684 60.179 319.876 60.1758C320.068 60.1727 320.254 60.2458 320.393 60.3793C321.225 61.1822 322.406 61.9827 323.006 62.0762C322.851 61.4862 322.084 60.17 321.217 59.0458C321.108 58.8925 321.062 58.7027 321.09 58.5164C321.117 58.3302 321.216 58.1619 321.365 58.047C321.515 57.9321 321.702 57.8796 321.89 57.9005C322.077 57.9214 322.249 58.014 322.369 58.1589C323.291 59.3576 324.786 61.5401 324.426 62.6986C324.373 62.876 324.277 63.0374 324.146 63.1687C324.015 63.3 323.854 63.397 323.677 63.4511C323.505 63.5056 323.324 63.5327 323.143 63.5314ZM312.552 76.9447C312.445 76.9448 312.338 76.9208 312.241 76.8746C311.721 76.6287 307.148 74.3886 306.738 71.7149C306.602 70.8299 307.018 70.3808 307.277 70.1913C308.042 69.6331 309.432 69.9119 310.661 70.3436C309.49 67.8007 309.353 66.2321 310.251 65.6726C310.631 65.4358 311.787 64.7109 318.31 70.7399C318.451 70.8709 318.535 71.0527 318.543 71.2453C318.55 71.4379 318.481 71.6256 318.35 71.7671C318.219 71.9085 318.037 71.9922 317.844 71.9996C317.652 72.007 317.464 71.9376 317.322 71.8067C315.021 69.6792 312.147 67.4031 311.099 67.017C311.134 67.7617 311.879 69.6756 312.846 71.4481C312.921 71.5838 312.95 71.7399 312.929 71.8934C312.909 72.0468 312.839 72.1896 312.731 72.3007C312.624 72.4122 312.484 72.4865 312.332 72.5127C312.179 72.5389 312.022 72.5157 311.884 72.4464C310.357 71.6831 308.58 71.1663 308.156 71.3533C308.161 71.3683 308.161 71.4163 308.172 71.4943C308.395 72.9429 311.167 74.7579 312.861 75.5614C313.011 75.6312 313.133 75.7502 313.206 75.8987C313.279 76.0471 313.299 76.2161 313.263 76.3775C313.227 76.539 313.137 76.6833 313.008 76.7865C312.878 76.8896 312.717 76.9454 312.552 76.9447ZM317.306 82.9426L317.197 82.942C317.101 82.9401 317.007 82.9193 316.92 82.881C316.833 82.8427 316.754 82.7876 316.688 82.7187C316.622 82.6499 316.57 82.5687 316.535 82.4799C316.501 82.391 316.484 82.2962 316.486 82.2009C316.494 81.7991 316.855 81.5143 317.228 81.4891C317.262 81.4903 323.152 81.5587 326.619 77.789C328.689 75.5404 329.526 72.3541 329.111 68.3169C329.101 68.2221 329.11 68.1262 329.137 68.0348C329.164 67.9434 329.209 67.8582 329.269 67.7842C329.329 67.7101 329.403 67.6486 329.487 67.6032C329.571 67.5578 329.663 67.5293 329.758 67.5194C330.149 67.4871 330.514 67.7683 330.555 68.1676C331.018 72.6413 330.05 76.212 327.681 78.7807C323.991 82.7825 318.205 82.9426 317.306 82.9426ZM87.9185 196.152C87.7069 196.152 87.4988 196.059 87.3567 195.877C87.3057 195.81 82.8128 188.197 83.5048 187.162C83.9119 186.558 84.129 186.222 92.8215 190.83C92.9918 190.92 93.1192 191.074 93.1757 191.258C93.2323 191.443 93.2134 191.642 93.1231 191.812C93.0329 191.982 92.8787 192.11 92.6945 192.166C92.5103 192.223 92.3112 192.204 92.141 192.113C89.5998 190.766 86.7871 189.354 85.2419 188.675C86.1371 190.661 88.1614 194.494 88.5133 194.998C88.6235 195.153 88.6686 195.346 88.6392 195.535C88.6097 195.723 88.508 195.893 88.3556 196.008C88.2237 196.105 88.0708 196.152 87.9185 196.152Z" fill="#241726"/>
<path d="M98.1794 199.081C98.1794 199.081 100.736 188.134 94.4966 188.465C85.8526 188.923 76.2349 207.922 89.7099 216.519C103.186 225.115 112.138 214.58 112.138 214.58L104.74 210.49C104.74 210.49 111.955 207.025 112.672 202.695C113.388 198.366 107.842 200.769 107.842 200.769C107.842 200.769 115.921 192.631 111.695 191.109C107.469 189.587 98.1794 199.081 98.1794 199.081Z" fill="#2C9CF0"/>
<path d="M92.6067 196.27C92.398 196.27 92.1965 196.239 92.0065 196.17C91.8309 196.11 91.6729 196.008 91.5466 195.872C91.4203 195.736 91.3297 195.571 91.2827 195.392C90.9619 194.222 92.5299 192.091 93.4917 190.925C93.6155 190.781 93.7913 190.69 93.9811 190.674C94.171 190.657 94.3597 190.716 94.5067 190.837C94.6536 190.959 94.747 191.133 94.7668 191.322C94.7866 191.512 94.7311 191.702 94.6124 191.851C93.6914 192.966 92.8915 194.236 92.7212 194.819C93.3226 194.747 94.5326 193.986 95.3924 193.211C95.4632 193.147 95.5459 193.098 95.6358 193.065C95.7257 193.033 95.821 193.019 95.9164 193.024C96.0117 193.029 96.1051 193.053 96.1913 193.094C96.2774 193.135 96.3546 193.193 96.4184 193.264C96.4822 193.335 96.5315 193.417 96.5634 193.507C96.5952 193.597 96.6091 193.692 96.6042 193.787C96.5993 193.882 96.5757 193.976 96.5348 194.062C96.4939 194.148 96.4364 194.225 96.3656 194.289C95.8068 194.795 94.0505 196.27 92.6067 196.27ZM102.692 210.033C102.525 210.033 102.363 209.976 102.233 209.871C102.104 209.765 102.015 209.618 101.981 209.455C101.946 209.291 101.97 209.121 102.047 208.973C102.124 208.825 102.249 208.707 102.402 208.641C104.125 207.893 106.96 206.171 107.229 204.734C107.253 204.607 107.239 204.559 107.239 204.557C106.909 204.367 105.07 204.832 103.488 205.56C103.347 205.625 103.189 205.643 103.037 205.612C102.886 205.581 102.748 205.502 102.644 205.387C102.54 205.272 102.476 205.127 102.461 204.972C102.445 204.818 102.48 204.663 102.559 204.53C103.586 202.79 104.396 200.902 104.456 200.161C103.396 200.51 100.447 202.688 98.0745 204.737C97.928 204.857 97.7403 204.916 97.5514 204.899C97.3625 204.883 97.1873 204.794 97.0633 204.651C96.9393 204.507 96.8763 204.321 96.8876 204.132C96.899 203.943 96.9838 203.765 97.1241 203.638C103.837 197.839 104.975 198.596 105.35 198.844C106.229 199.435 106.038 200.998 104.782 203.5C106.024 203.111 107.424 202.88 108.169 203.461C108.423 203.659 108.823 204.123 108.657 205.003C108.158 207.661 103.51 209.745 102.982 209.974C102.886 210.014 102.788 210.033 102.692 210.033ZM97.8329 215.869H97.8245C97.5576 215.866 91.2629 215.741 87.4854 211.356C85.2039 208.709 84.3602 205.107 84.973 200.652C85.0007 200.462 85.1021 200.291 85.2552 200.175C85.4084 200.059 85.601 200.007 85.7915 200.032C85.886 200.045 85.977 200.077 86.0593 200.125C86.1416 200.173 86.2136 200.237 86.2712 200.313C86.3288 200.389 86.3708 200.476 86.3949 200.568C86.4189 200.66 86.4246 200.756 86.4115 200.851C85.8581 204.87 86.5872 208.083 88.5791 210.4C91.9213 214.289 97.7837 214.416 97.843 214.417C98.0355 214.42 98.219 214.499 98.3533 214.637C98.4877 214.775 98.5618 214.96 98.5596 215.153C98.5567 215.344 98.479 215.526 98.343 215.66C98.207 215.794 98.0238 215.869 97.8329 215.869ZM72.4952 165.374H72.4742C69.7052 165.363 67.462 163.1 67.4734 160.33C67.4848 157.572 69.7376 155.329 72.4958 155.329C73.8593 155.334 75.1191 155.863 76.0634 156.816C76.5289 157.283 76.8972 157.838 77.1471 158.449C77.397 159.059 77.5235 159.713 77.5193 160.373C77.5061 163.13 75.2516 165.374 72.4952 165.374ZM72.5108 156.781C70.5344 156.781 68.9341 158.376 68.9257 160.335C68.9223 161.282 69.2947 162.191 69.9609 162.863C70.6272 163.536 71.533 163.916 72.4796 163.921L72.4952 164.648V163.921C74.4541 163.921 76.0562 162.327 76.0658 160.366C76.0692 159.897 75.9795 159.432 75.8017 158.998C75.6239 158.564 75.3617 158.17 75.0303 157.838C74.7012 157.504 74.309 157.239 73.8765 157.057C73.444 156.876 72.9798 156.782 72.5108 156.781ZM162.95 43.7411H162.929C160.16 43.7297 157.917 41.4667 157.928 38.6966C157.939 35.9384 160.192 33.6958 162.95 33.6958C163.614 33.6945 164.271 33.8254 164.884 34.0807C165.497 34.336 166.052 34.7106 166.519 35.1828C166.984 35.6502 167.353 36.2052 167.602 36.8157C167.852 37.4262 167.979 38.0801 167.975 38.7397C167.961 41.4967 165.707 43.7411 162.95 43.7411ZM162.965 35.1487C160.989 35.1487 159.389 36.743 159.38 38.7025C159.377 39.6491 159.749 40.5583 160.416 41.2307C161.082 41.903 161.988 42.2836 162.934 42.2888L162.95 43.0149V42.2888C164.909 42.2888 166.511 40.6945 166.521 38.7337C166.524 38.2648 166.434 37.7998 166.256 37.3659C166.079 36.9319 165.816 36.5376 165.485 36.2058C165.156 35.8714 164.764 35.6058 164.331 35.4243C163.899 35.2429 163.434 35.1492 162.965 35.1487ZM343.088 123.641H343.067C340.298 123.63 338.055 121.367 338.066 118.597C338.078 115.839 340.33 113.596 343.089 113.596C343.752 113.595 344.41 113.726 345.022 113.981C345.635 114.236 346.191 114.611 346.657 115.083C347.122 115.551 347.491 116.105 347.741 116.716C347.99 117.326 348.117 117.98 348.112 118.64C348.098 121.397 345.844 123.641 343.088 123.641ZM343.104 115.048C341.127 115.048 339.527 116.643 339.519 118.602C339.515 119.549 339.888 120.458 340.554 121.13C341.22 121.803 342.126 122.183 343.072 122.189L343.088 122.915V122.189C345.047 122.189 346.649 120.594 346.659 118.633C346.662 118.165 346.572 117.7 346.395 117.266C346.217 116.832 345.955 116.437 345.623 116.106C345.294 115.771 344.902 115.506 344.469 115.324C344.037 115.143 343.573 115.049 343.104 115.048ZM132.443 302.326H132.422C129.653 302.315 127.41 300.052 127.421 297.281C127.433 294.523 129.685 292.28 132.444 292.28C133.807 292.286 135.067 292.814 136.011 293.767C136.477 294.235 136.845 294.79 137.095 295.4C137.345 296.011 137.471 296.665 137.467 297.324C137.454 300.082 135.199 302.326 132.443 302.326ZM132.458 293.733C130.482 293.733 128.882 295.328 128.873 297.287C128.87 298.234 129.242 299.143 129.909 299.815C130.575 300.488 131.481 300.868 132.427 300.873L132.443 301.599V300.873C134.402 300.873 136.004 299.279 136.014 297.318C136.017 296.849 135.927 296.384 135.749 295.95C135.572 295.516 135.309 295.122 134.978 294.79C134.649 294.456 134.257 294.191 133.824 294.009C133.392 293.828 132.928 293.734 132.458 293.733ZM167.238 241.334H167.233C167.138 241.333 167.044 241.314 166.956 241.277C166.868 241.24 166.788 241.186 166.721 241.118C166.654 241.051 166.601 240.97 166.565 240.882C166.529 240.794 166.511 240.699 166.512 240.604L166.584 228.379C166.585 228.187 166.663 228.004 166.799 227.868C166.935 227.733 167.118 227.657 167.31 227.657H167.314C167.41 227.657 167.504 227.677 167.592 227.714C167.68 227.751 167.76 227.805 167.827 227.873C167.894 227.94 167.947 228.021 167.983 228.109C168.019 228.198 168.037 228.292 168.036 228.388L167.964 240.613C167.962 240.804 167.885 240.988 167.749 241.123C167.613 241.258 167.429 241.334 167.238 241.334Z" fill="#FDA220"/>
<path d="M162.31 238.665C162.155 238.665 162.005 238.615 161.88 238.524C161.756 238.432 161.664 238.304 161.617 238.156C161.571 238.009 161.573 237.851 161.622 237.704C161.672 237.558 161.767 237.431 161.894 237.343L171.989 230.304C172.147 230.2 172.34 230.161 172.526 230.197C172.712 230.233 172.877 230.339 172.985 230.495C173.094 230.65 173.137 230.842 173.106 231.029C173.076 231.216 172.973 231.383 172.82 231.496L162.725 238.534C162.604 238.619 162.459 238.665 162.31 238.665Z" fill="#241726"/>
<path d="M171.173 239.179C170.98 239.179 170.788 239.102 170.645 238.952L163.013 230.886C162.88 230.746 162.809 230.559 162.814 230.367C162.82 230.174 162.901 229.992 163.041 229.859C163.181 229.727 163.368 229.656 163.56 229.661C163.753 229.667 163.935 229.748 164.068 229.887L171.7 237.953C171.797 238.056 171.862 238.186 171.887 238.325C171.911 238.465 171.894 238.609 171.838 238.739C171.782 238.869 171.689 238.98 171.571 239.058C171.453 239.136 171.314 239.178 171.173 239.179Z" fill="#241726"/>
<path d="M160.928 235.091C160.833 235.092 160.739 235.073 160.65 235.037C160.562 235.001 160.482 234.948 160.414 234.881C160.277 234.745 160.2 234.561 160.199 234.368C160.198 234.175 160.274 233.99 160.409 233.853C160.545 233.717 160.729 233.639 160.922 233.638L172.68 233.526H172.684C172.873 233.53 173.053 233.608 173.186 233.743C173.319 233.877 173.394 234.059 173.395 234.248C173.396 234.437 173.324 234.619 173.193 234.756C173.062 234.892 172.883 234.973 172.693 234.979L160.936 235.091H160.928ZM275.093 99.9974H275.089C274.994 99.9969 274.9 99.9777 274.812 99.9407C274.724 99.9037 274.644 99.8498 274.577 99.7819C274.51 99.7141 274.457 99.6337 274.421 99.5454C274.385 99.457 274.367 99.3625 274.367 99.2671L274.44 87.0422C274.441 86.8505 274.518 86.6671 274.654 86.5319C274.79 86.3967 274.974 86.3206 275.166 86.3203H275.17C275.266 86.3208 275.36 86.3401 275.448 86.377C275.536 86.414 275.616 86.4679 275.683 86.5358C275.75 86.6036 275.803 86.684 275.839 86.7723C275.875 86.8607 275.893 86.9553 275.892 87.0506L275.82 99.2755C275.819 99.4673 275.742 99.6509 275.605 99.7862C275.469 99.9215 275.285 99.9974 275.093 99.9974Z" fill="#241726"/>
<path d="M270.165 97.3284C270.011 97.3283 269.86 97.2789 269.736 97.1875C269.611 97.096 269.519 96.9672 269.473 96.8198C269.426 96.6725 269.428 96.5141 269.478 96.3678C269.528 96.2215 269.623 96.0949 269.749 96.0063L279.844 88.968C280.002 88.8636 280.195 88.825 280.381 88.8606C280.567 88.8961 280.732 89.003 280.841 89.1584C280.949 89.3138 280.993 89.5055 280.962 89.6925C280.931 89.8795 280.829 90.047 280.676 90.1595L270.581 97.1977C270.459 97.2829 270.314 97.3285 270.165 97.3284Z" fill="#241726"/>
<path d="M279.03 97.8425C278.837 97.8425 278.646 97.7658 278.502 97.6153L270.87 89.5499C270.738 89.4098 270.667 89.2231 270.672 89.0306C270.677 88.838 270.759 88.6555 270.898 88.5228C271.038 88.3908 271.225 88.3197 271.418 88.325C271.61 88.3303 271.793 88.4115 271.925 88.551L279.558 96.6163C279.655 96.7197 279.72 96.8491 279.744 96.9887C279.769 97.1284 279.752 97.2721 279.696 97.4024C279.64 97.5326 279.547 97.6436 279.429 97.7218C279.31 97.8 279.172 97.842 279.03 97.8425Z" fill="#241726"/>
<path d="M268.784 93.7549C268.592 93.7558 268.406 93.6801 268.27 93.5445C268.133 93.4089 268.055 93.2245 268.054 93.0318C268.054 92.8391 268.129 92.654 268.265 92.5172C268.4 92.3803 268.585 92.3029 268.778 92.3021L280.535 92.1899H280.54C280.729 92.194 280.909 92.2716 281.042 92.4064C281.174 92.5412 281.249 92.7225 281.251 92.9117C281.252 93.1009 281.179 93.2832 281.048 93.4197C280.917 93.5562 280.738 93.6363 280.549 93.6428L268.791 93.7549H268.784ZM344.824 271.419H344.82C344.725 271.418 344.63 271.399 344.542 271.362C344.454 271.325 344.375 271.271 344.308 271.203C344.241 271.135 344.188 271.055 344.152 270.967C344.116 270.878 344.097 270.784 344.098 270.688L344.171 258.463C344.172 258.272 344.249 258.088 344.385 257.953C344.521 257.818 344.705 257.742 344.897 257.741H344.901C344.996 257.742 345.091 257.761 345.179 257.798C345.267 257.835 345.347 257.889 345.414 257.957C345.481 258.025 345.534 258.106 345.57 258.194C345.606 258.282 345.624 258.377 345.623 258.472L345.55 270.697C345.549 270.889 345.472 271.072 345.336 271.207C345.2 271.343 345.016 271.418 344.824 271.419Z" fill="#241726"/>
<path d="M339.896 268.75C339.741 268.75 339.591 268.701 339.466 268.609C339.342 268.518 339.249 268.389 339.203 268.242C339.157 268.094 339.158 267.936 339.208 267.79C339.258 267.643 339.353 267.517 339.479 267.428L349.575 260.39C349.733 260.285 349.925 260.247 350.111 260.282C350.298 260.318 350.463 260.425 350.571 260.58C350.679 260.736 350.723 260.927 350.692 261.114C350.661 261.301 350.559 261.469 350.406 261.581L340.311 268.62C340.185 268.708 340.041 268.75 339.896 268.75Z" fill="#241726"/>
<path d="M348.761 269.264C348.568 269.264 348.376 269.187 348.233 269.037L340.601 260.971C340.469 260.831 340.397 260.644 340.403 260.452C340.408 260.259 340.489 260.077 340.629 259.944C340.769 259.812 340.956 259.741 341.148 259.746C341.341 259.752 341.523 259.833 341.656 259.972L349.288 268.038C349.385 268.141 349.45 268.271 349.475 268.41C349.499 268.55 349.482 268.694 349.426 268.824C349.37 268.954 349.278 269.065 349.159 269.143C349.041 269.221 348.903 269.263 348.761 269.264Z" fill="#241726"/>
<path d="M338.515 265.177C338.323 265.178 338.138 265.102 338.001 264.966C337.864 264.831 337.787 264.646 337.786 264.454C337.785 264.261 337.861 264.076 337.996 263.939C338.132 263.802 338.316 263.725 338.509 263.724L350.267 263.612H350.271C350.46 263.616 350.64 263.693 350.773 263.828C350.906 263.963 350.981 264.144 350.982 264.333C350.983 264.523 350.911 264.705 350.78 264.841C350.649 264.978 350.47 265.058 350.28 265.064L338.523 265.177H338.515ZM108.415 63.802C108.009 63.802 107.668 63.5496 107.527 63.1436C107.496 63.0279 106.903 60.2013 106.281 56.7104C101.493 56.5305 100.53 55.8746 100.219 55.1898C100.13 54.9937 99.9753 54.4763 100.449 53.9054C101.327 52.8495 103.682 51.1424 105.233 50.0715C104.468 44.2427 104.851 42.884 105.333 42.3336C105.657 41.96 106.162 41.8479 106.635 42.0584C107.701 42.5278 110.225 44.1522 112.362 45.605C115.424 43.883 117.495 43.0105 118.521 43.0105C119.35 43.0105 119.694 43.5388 119.737 43.9921C119.762 44.2721 119.84 45.1044 117.748 49.4575C123.065 53.4797 123.061 54.2994 123.058 54.7455C123.059 54.8919 123.025 55.0363 122.959 55.167C122.893 55.2978 122.797 55.411 122.679 55.4974C121.745 56.1822 115.904 56.5281 113.957 56.6253C109.836 63.802 108.879 63.802 108.415 63.802ZM107.764 56.7488C108.075 58.4779 108.404 60.2037 108.752 61.9258C109.365 61.2297 110.492 59.6707 112.234 56.6972C110.667 56.75 109.168 56.7656 107.764 56.7488ZM107.507 55.2911C109.215 55.3247 111.124 55.2923 113.089 55.2102C114.076 53.4645 115.018 51.6936 115.914 49.8994C114.721 49.0188 113.514 48.158 112.292 47.3175C110.421 48.4041 108.587 49.5538 106.793 50.7647C106.983 52.1234 107.223 53.6422 107.507 55.2911ZM101.727 54.6537C102.131 54.8234 103.224 55.1214 106.026 55.2462C105.823 54.0617 105.633 52.875 105.457 51.6863C103.683 52.9365 102.344 54.0008 101.727 54.6537ZM117.094 50.7857C116.361 52.2485 115.596 53.6956 114.802 55.1262C118.126 54.9368 120.375 54.6573 121.352 54.4487C120.93 53.9492 119.851 52.8837 117.094 50.7857ZM106.346 43.5304C106.231 44.0305 106.124 45.4138 106.582 49.1583C108.017 48.2044 109.478 47.2885 110.961 46.4115C108.957 45.0648 107.229 43.9849 106.346 43.5304ZM113.699 46.5248C114.684 47.2114 115.653 47.9039 116.56 48.5713C117.612 46.3594 118.071 45.1056 118.226 44.506C117.484 44.6583 116.026 45.2513 113.699 46.5248ZM343.373 178.978C343.357 178.978 343.329 178.977 343.314 178.976C342.159 178.905 337.449 175.432 335.89 174.261C333.468 175.157 329.571 176.502 327.976 176.502C327.782 176.502 327.187 176.502 326.87 176.046C326.695 175.793 326.661 175.468 326.777 175.155C326.828 175.046 328.182 172.495 329.938 169.414C326.375 166.212 326.053 165.092 326.253 164.367C326.31 164.16 326.521 163.662 327.252 163.527C328.291 163.334 330.484 163.38 333.381 163.642C336.817 158.209 337.877 157.745 338.599 157.745C339.026 157.745 339.386 157.977 339.586 158.382C340.106 159.425 341.005 162.288 341.717 164.773C347.967 165.921 348.341 166.817 348.524 167.253C348.593 167.415 348.619 167.591 348.6 167.766C348.581 167.941 348.518 168.109 348.416 168.252C348.257 168.484 347.784 169.173 343.39 171.179C344.891 177.623 344.383 178.266 344.106 178.616C344.02 178.729 343.908 178.819 343.781 178.882C343.654 178.945 343.515 178.977 343.373 178.978ZM337.5 173.65C340.175 175.632 342.081 176.856 342.966 177.321C342.962 176.668 342.814 175.158 342.039 171.782C340.54 172.437 339.026 173.059 337.5 173.65ZM331.053 170.393C329.938 172.353 329.004 174.068 328.501 175.002C329.657 174.827 331.83 174.183 334.521 173.214C333.343 172.301 332.187 171.361 331.053 170.393ZM331.788 169.109C333.2 170.322 334.648 171.493 336.13 172.62C338.005 171.91 339.862 171.152 341.698 170.346C341.365 168.977 340.979 167.509 340.569 166.044C338.436 165.681 336.29 165.391 334.137 165.174C333.334 166.474 332.551 167.785 331.788 169.109ZM342.156 166.335C342.466 167.466 342.763 168.601 343.045 169.739C345.278 168.708 346.434 168.038 346.933 167.677C346.46 167.423 345.233 166.935 342.156 166.335ZM327.755 164.92C327.959 165.31 328.608 166.238 330.679 168.126C331.281 167.086 331.895 166.053 332.52 165.026C330.242 164.842 328.413 164.843 327.755 164.92ZM335.002 163.804C336.718 163.99 338.479 164.228 340.126 164.497C339.444 162.167 338.804 160.225 338.417 159.316C338.047 159.605 337.082 160.577 335.002 163.804ZM57.4174 143.783C56.8813 143.783 56.3735 143.783 54.9572 138.147C50.1807 137.227 49.7622 136.666 49.6213 136.477C49.4852 136.296 49.427 135.964 49.4893 135.747C49.5757 135.441 49.776 134.732 55.2336 132.531C57.1943 127.421 57.8581 127.421 58.3006 127.421C58.5291 127.421 58.8457 127.585 58.983 127.77C59.3331 128.241 59.6509 129.464 60.1318 131.422C60.2835 132.035 60.4652 132.775 60.5701 133.101C60.8567 133.229 61.4893 133.456 62.0146 133.644C64.8208 134.649 65.5445 134.992 65.6764 135.662C65.7244 135.913 65.5973 136.28 65.4066 136.451C64.8363 136.962 62.1237 137.969 60.7008 138.475C58.3899 143.734 57.8959 143.759 57.4594 143.782C57.4474 143.783 57.4306 143.783 57.4174 143.783ZM51.4693 135.852C52.4238 136.127 54.1645 136.523 55.6839 136.806C55.9633 136.858 56.1876 137.069 56.2553 137.346C56.6439 138.919 57.1506 140.71 57.5163 141.733C58.0458 140.78 58.8469 139.095 59.4968 137.606C59.5778 137.42 59.7307 137.277 59.9208 137.21C61.2189 136.754 62.6844 136.193 63.5964 135.794C62.9578 135.525 62.0883 135.213 61.5253 135.012C59.9208 134.437 59.6185 134.312 59.4129 134.035C59.233 133.793 59.1209 133.389 58.7221 131.769C58.5716 131.16 58.342 130.225 58.1375 129.525C57.662 130.433 56.9971 131.978 56.479 133.344C56.4064 133.534 56.2577 133.686 56.0689 133.761C54.3846 134.434 52.4718 135.292 51.4693 135.852ZM277.674 42.7557C277.136 42.7557 276.627 42.7557 275.212 37.1188C270.436 36.199 270.018 35.6383 269.878 35.4507C269.741 35.269 269.683 34.9362 269.746 34.7191C269.832 34.4127 270.032 33.7034 275.49 31.5034C277.451 26.3936 278.114 26.3936 278.557 26.3936C278.787 26.3936 279.102 26.5578 279.239 26.7425C279.589 27.2138 279.907 28.4364 280.388 30.3947C280.54 31.0075 280.722 31.7475 280.826 32.0731C281.113 32.2008 281.744 32.4268 282.268 32.6151C285.075 33.6218 285.799 33.9642 285.931 34.6346C285.979 34.8858 285.851 35.2522 285.661 35.4231C285.092 35.9333 282.379 36.9413 280.957 37.4474C278.646 42.7059 278.152 42.7311 277.715 42.7545C277.702 42.7557 277.687 42.7557 277.674 42.7557ZM271.724 34.8241C272.679 35.0993 274.42 35.4944 275.938 35.7774C276.217 35.8302 276.441 36.0413 276.509 36.3177C276.898 37.8911 277.406 39.6845 277.77 40.7062C278.3 39.7541 279.101 38.068 279.752 36.5779C279.833 36.3926 279.986 36.2493 280.176 36.1828C281.473 35.7259 282.938 35.1658 283.85 34.7665C283.212 34.4967 282.341 34.1849 281.776 33.9828C280.176 33.409 279.874 33.2843 279.668 33.0084C279.488 32.7656 279.376 32.3621 278.977 30.7419C278.827 30.1327 278.597 29.1979 278.393 28.4982C277.917 29.406 277.252 30.9506 276.734 32.3171C276.662 32.5072 276.513 32.6589 276.324 32.7344C274.64 33.4066 272.728 34.2634 271.724 34.8241ZM325.756 308.918C325.218 308.918 324.709 308.918 323.293 303.281C318.518 302.361 318.099 301.8 317.959 301.612C317.823 301.431 317.765 301.098 317.827 300.881C317.913 300.575 318.114 299.865 323.571 297.665C325.532 292.555 326.196 292.555 326.638 292.555C326.868 292.555 327.183 292.72 327.321 292.904C327.671 293.376 327.989 294.598 328.47 296.557C328.621 297.169 328.803 297.909 328.908 298.235C329.195 298.363 329.826 298.589 330.349 298.777C333.157 299.784 333.88 300.126 334.012 300.796C334.06 301.048 333.933 301.414 333.743 301.585C333.174 302.095 330.461 303.103 329.038 303.609C326.727 308.868 326.233 308.893 325.797 308.916C325.785 308.918 325.769 308.918 325.756 308.918ZM319.806 300.985C320.76 301.26 322.501 301.656 324.019 301.939C324.299 301.991 324.523 302.203 324.591 302.479C324.979 304.052 325.487 305.846 325.852 306.867C326.381 305.915 327.182 304.229 327.833 302.739C327.914 302.554 328.067 302.411 328.257 302.344C329.554 301.887 331.02 301.327 331.932 300.928C331.293 300.658 330.423 300.346 329.858 300.144C328.257 299.57 327.955 299.445 327.749 299.17C327.57 298.927 327.457 298.523 327.059 296.903C326.908 296.294 326.679 295.359 326.474 294.659C325.999 295.567 325.334 297.112 324.816 298.478C324.743 298.668 324.594 298.82 324.405 298.896C322.721 299.568 320.809 300.425 319.806 300.985ZM251.109 64.3788C250.953 64.3786 250.8 64.3278 250.675 64.2341C250.549 64.1403 250.457 64.0085 250.412 63.8584C250.082 62.7431 242.008 36.5965 213.855 40.6583C213.463 40.7176 213.089 40.4412 213.032 40.0443C212.976 39.6473 213.25 39.278 213.648 39.2216C243.046 34.968 251.723 63.1634 251.806 63.4482C251.838 63.5565 251.844 63.6707 251.824 63.7817C251.804 63.8927 251.758 63.9976 251.69 64.0879C251.623 64.1782 251.535 64.2515 251.434 64.302C251.333 64.3525 251.222 64.3788 251.109 64.3788Z" fill="#2C9CF0"/>
<path d="M217.514 49.1172C217.432 49.1172 217.343 49.11 217.246 49.0938C215.268 48.764 202.262 41.6976 202.587 39.4317C202.888 37.3379 217.327 32.7568 219.961 32.7568C220.239 32.7568 221.086 32.7568 221.411 33.4074C221.55 33.6856 221.62 34.1443 221.163 34.7523C219.24 37.3151 216.158 39.3483 214.789 40.1764C216.958 43.4251 219.183 47.2752 218.514 48.5416C218.32 48.9073 217.955 49.1172 217.514 49.1172ZM204.14 39.6661C205.421 41.3073 214.475 46.8147 217.176 47.5888C216.896 46.368 214.999 43.0605 213.152 40.3485C213.036 40.1788 212.997 39.9683 213.046 39.7687C213.094 39.569 213.224 39.3999 213.405 39.301C213.446 39.2782 217.405 37.0968 219.741 34.2157C216.311 34.3926 205.858 38.386 204.14 39.6661ZM249.812 72.0864C249.611 72.0864 249.405 72.0396 249.2 71.9467C246.794 70.8512 237.963 56.7304 237.536 53.2923C237.129 50.0352 237.519 46.0664 237.536 45.8991C237.567 45.5813 237.803 45.3217 238.117 45.2593C238.226 45.2371 240.821 44.725 243.577 44.725C245.825 44.725 247.541 45.071 248.678 45.7528C251.372 47.3705 259.992 62.5065 259.201 65.354C259.059 65.8685 258.652 66.1881 258.142 66.1881C256.312 66.1875 253.232 64.8647 251.551 64.0714C251.734 66.4357 251.864 70.4435 250.798 71.6295C250.456 72.0079 250.073 72.0864 249.812 72.0864ZM238.934 46.5886C238.844 47.78 238.676 50.7025 238.977 53.113C239.372 56.2837 247.944 69.6412 249.763 70.6054C250.253 69.9506 250.361 66.4609 249.986 62.9256C249.972 62.7951 249.994 62.6634 250.049 62.5444C250.105 62.4254 250.191 62.3236 250.299 62.2497C250.408 62.1758 250.534 62.1326 250.665 62.1247C250.796 62.1168 250.926 62.1445 251.043 62.2049C252.323 62.8704 255.891 64.5385 257.823 64.7196C257.735 62.1659 250.661 48.6405 247.927 46.9988C247.033 46.4615 245.528 46.1779 243.576 46.1779C241.677 46.1779 239.818 46.4423 238.934 46.5886ZM62.5108 240.312C62.3417 240.312 62.1732 240.253 62.0353 240.134C39.5691 220.684 55.2099 195.679 55.3706 195.429C55.4746 195.267 55.6388 195.153 55.8271 195.111C56.0153 195.07 56.2122 195.106 56.3744 195.21C56.5366 195.314 56.6508 195.478 56.692 195.666C56.7332 195.854 56.6978 196.051 56.5938 196.213C55.9667 197.193 41.4819 220.418 62.9863 239.036C63.0987 239.133 63.1787 239.262 63.2156 239.405C63.2525 239.549 63.2445 239.701 63.1927 239.84C63.1409 239.979 63.0478 240.098 62.9259 240.183C62.8039 240.267 62.6591 240.312 62.5108 240.312Z" fill="#241726"/>
<path d="M68.8478 248.515C67.2348 248.515 52.5744 241.074 52.4832 238.496C52.4778 238.324 52.5102 237.464 53.7376 237.378C56.9096 237.149 60.4874 238.154 62.0116 238.646C64.2943 230.325 65.6776 230.325 66.1411 230.325C66.3726 230.325 66.8121 230.407 67.1443 230.951C68.19 232.663 71.3619 247.119 69.4366 248.357C69.2747 248.462 69.0762 248.515 68.8478 248.515ZM68.8478 247.062V247.788L68.849 247.062H68.8478ZM54.2467 238.806C56.22 240.818 66.2035 246.589 68.5953 247.035C69.0013 245.002 67.2348 234.538 66.0518 231.989C65.3125 233 64.0545 236.598 63.2132 239.771C63.187 239.869 63.1407 239.961 63.0772 240.04C63.0138 240.119 62.9345 240.184 62.8445 240.231C62.6628 240.324 62.4487 240.336 62.2569 240.266C62.2143 240.249 57.9241 238.675 54.2467 238.806ZM51.0292 217.837C50.8679 217.837 50.7111 217.783 50.5837 217.684C50.3438 217.498 44.6889 213.073 44.0449 209.378C43.4663 206.064 48.5906 192.33 51.1425 189.295C51.4405 188.94 51.9046 188.468 52.4904 188.468C52.7998 188.468 53.0864 188.603 53.2975 188.847C54.4961 190.231 55.5107 193.425 56.0113 195.215C57.6699 193.539 60.5906 190.837 62.1867 190.837C62.8265 190.837 63.3176 191.21 63.5017 191.835C64.2494 194.37 59.3566 210.289 57.0379 212.864C54.8403 215.304 51.5844 217.608 51.4471 217.705C51.3247 217.791 51.1788 217.837 51.0292 217.837ZM52.3645 190.005C50.6604 191.433 44.9204 205.948 45.475 209.128C45.8935 211.521 49.3179 214.768 51.0502 216.197C52.0089 215.486 54.3318 213.698 55.9586 211.892C58.1106 209.499 62.646 194.07 62.1088 192.246C61.2717 192.289 58.3504 194.81 56.169 197.146C56.0793 197.242 55.9654 197.311 55.8393 197.348C55.7132 197.384 55.5796 197.385 55.4528 197.352C55.326 197.318 55.2106 197.251 55.1189 197.157C55.0272 197.063 54.9626 196.946 54.932 196.819C54.5945 195.403 53.5038 191.558 52.3645 190.005Z" fill="#241726"/>
<path d="M198.428 200.734C198.428 200.734 258.461 291.826 260.377 291.227C262.292 290.628 282.091 272.649 284.007 272.649C285.922 272.649 222.058 188.149 220.142 186.351C218.226 184.553 196.512 197.139 198.428 200.734Z" fill="#2C9CF0"/>
<path d="M179.394 53.873C134.865 53.873 98.7673 89.9707 98.7673 134.5C98.7673 179.028 134.865 215.126 179.394 215.126C223.923 215.126 260.02 179.028 260.02 134.5C260.02 89.9707 223.923 53.873 179.394 53.873ZM179.394 189.274C149.142 189.274 124.619 164.751 124.619 134.5C124.619 104.248 149.142 79.7246 179.394 79.7246C209.645 79.7246 234.169 104.248 234.169 134.5C234.169 164.751 209.645 189.274 179.394 189.274Z" fill="#2C9CF0"/>
<path d="M180.058 181.997C184.897 181.997 188.82 178.074 188.82 173.235C188.82 168.396 184.897 164.474 180.058 164.474C175.219 164.474 171.297 168.396 171.297 173.235C171.297 178.074 175.219 181.997 180.058 181.997Z" fill="#B3739B"/>
<path d="M150.986 121.464C150.986 121.464 163.332 123.853 164.527 123.057C165.722 122.26 165.323 105.534 178.465 104.339C191.608 103.144 198.776 115.092 188.023 124.252C177.27 133.411 172.093 133.013 170.102 143.765C168.324 153.365 170.898 159.695 172.093 160.492C173.288 161.288 184.837 161.288 185.236 159.695C185.634 158.102 182.448 145.359 187.227 142.173C192.006 138.987 207.112 131.771 208.334 115.889C209.927 95.1803 187.227 84.0293 171.695 88.8082C156.163 93.5871 148.996 117.879 150.986 121.464Z" fill="#B3739B"/>
<path d="M195.266 98.6724C195.106 98.6724 194.947 98.6208 194.812 98.5135C182.701 88.8232 172.586 96.9683 172.485 97.0528C172.337 97.1755 172.146 97.2342 171.954 97.216C171.762 97.1978 171.586 97.1041 171.463 96.9557C171.34 96.8072 171.282 96.6161 171.3 96.4244C171.318 96.2327 171.412 96.056 171.56 95.9333C171.668 95.8428 182.701 86.9632 195.72 97.3784C195.837 97.4727 195.922 97.6009 195.964 97.7455C196.005 97.8901 196 98.0439 195.951 98.1858C195.901 98.3277 195.808 98.4506 195.686 98.5378C195.563 98.6249 195.417 98.6719 195.266 98.6724ZM203.62 111.383C203.524 111.384 203.43 111.365 203.342 111.328C203.253 111.292 203.173 111.238 203.106 111.171C203.038 111.104 202.985 111.023 202.949 110.935C202.912 110.847 202.893 110.753 202.893 110.657C202.893 106.631 198.412 101.758 198.366 101.709C198.242 101.566 198.179 101.382 198.189 101.193C198.198 101.005 198.281 100.827 198.42 100.699C198.558 100.57 198.741 100.501 198.929 100.505C199.118 100.509 199.298 100.586 199.431 100.72C199.632 100.936 204.346 106.066 204.346 110.657C204.346 110.85 204.269 111.035 204.133 111.171C203.997 111.307 203.812 111.383 203.62 111.383ZM120.905 179.798C120.814 179.798 120.724 179.781 120.64 179.748C116.628 178.178 116.03 173.631 116.008 173.439C115.984 173.248 116.038 173.056 116.156 172.904C116.274 172.753 116.448 172.655 116.639 172.631C116.83 172.609 117.022 172.663 117.173 172.781C117.325 172.899 117.424 173.072 117.449 173.262C117.454 173.301 117.976 177.145 121.17 178.395C121.328 178.457 121.459 178.571 121.541 178.72C121.622 178.868 121.65 179.04 121.618 179.206C121.587 179.372 121.498 179.523 121.368 179.631C121.238 179.739 121.074 179.798 120.905 179.798ZM121.994 169.992C121.903 169.992 121.814 169.976 121.729 169.943C117.717 168.372 117.12 163.826 117.097 163.633C117.074 163.443 117.127 163.25 117.246 163.099C117.364 162.947 117.538 162.849 117.728 162.826C117.919 162.803 118.111 162.857 118.263 162.975C118.414 163.093 118.513 163.266 118.539 163.457C118.544 163.496 119.065 167.34 122.26 168.589C122.417 168.651 122.548 168.766 122.63 168.914C122.712 169.062 122.739 169.234 122.708 169.401C122.676 169.567 122.588 169.717 122.458 169.825C122.327 169.933 122.163 169.992 121.994 169.992ZM129.621 181.614C129.53 181.614 129.441 181.597 129.356 181.564C125.344 179.994 124.747 175.448 124.724 175.255C124.701 175.064 124.754 174.872 124.873 174.72C124.991 174.569 125.165 174.471 125.356 174.447C125.546 174.427 125.737 174.481 125.888 174.599C126.04 174.716 126.139 174.888 126.166 175.078C126.171 175.117 126.692 178.961 129.887 180.211C130.044 180.273 130.175 180.388 130.257 180.536C130.339 180.684 130.366 180.856 130.335 181.022C130.303 181.189 130.215 181.339 130.085 181.447C129.954 181.555 129.79 181.614 129.621 181.614ZM130.513 190.201C130.437 190.201 130.362 190.189 130.289 190.166C126.191 188.837 125.325 184.334 125.29 184.143C125.263 183.957 125.31 183.769 125.419 183.617C125.529 183.464 125.693 183.36 125.878 183.327C126.062 183.293 126.253 183.331 126.409 183.435C126.566 183.538 126.676 183.698 126.718 183.88C126.726 183.919 127.474 187.726 130.737 188.783C130.901 188.837 131.041 188.948 131.131 189.095C131.221 189.242 131.256 189.417 131.229 189.587C131.202 189.758 131.115 189.914 130.984 190.026C130.853 190.138 130.686 190.2 130.513 190.201ZM113.187 159.323C113.017 159.323 112.846 159.265 112.709 159.144C109.465 156.31 110.439 151.83 110.483 151.641C110.533 151.46 110.65 151.305 110.81 151.208C110.971 151.112 111.163 151.081 111.345 151.122C111.528 151.164 111.688 151.274 111.791 151.43C111.894 151.587 111.933 151.777 111.9 151.961C111.892 152 111.082 155.794 113.666 158.05C113.778 158.148 113.857 158.277 113.893 158.42C113.929 158.564 113.92 158.715 113.868 158.853C113.816 158.992 113.723 159.111 113.601 159.195C113.479 159.279 113.335 159.324 113.187 159.323ZM106.28 154.652C106.078 154.652 105.877 154.569 105.733 154.405C102.893 151.164 104.455 146.853 104.523 146.671C104.557 146.582 104.607 146.5 104.672 146.43C104.737 146.36 104.815 146.304 104.902 146.265C104.988 146.225 105.082 146.203 105.177 146.199C105.273 146.196 105.368 146.211 105.457 146.245C105.832 146.384 106.024 146.802 105.886 147.178C105.873 147.214 104.566 150.868 106.826 153.448C106.918 153.553 106.978 153.682 106.999 153.82C107.019 153.958 106.999 154.099 106.941 154.227C106.884 154.354 106.791 154.461 106.673 154.537C106.556 154.613 106.419 154.653 106.28 154.652ZM113.187 169.547C113.064 169.547 112.939 169.516 112.824 169.45C109.092 167.295 109.186 162.71 109.192 162.516C109.203 162.327 109.287 162.15 109.426 162.022C109.565 161.894 109.749 161.826 109.938 161.831C110.127 161.836 110.307 161.915 110.438 162.051C110.57 162.186 110.644 162.368 110.644 162.557C110.643 162.596 110.581 166.476 113.55 168.192C113.632 168.239 113.705 168.303 113.763 168.379C113.821 168.454 113.864 168.541 113.888 168.633C113.913 168.725 113.919 168.821 113.906 168.916C113.894 169.01 113.863 169.101 113.815 169.184C113.681 169.417 113.437 169.547 113.187 169.547ZM177.012 295.609C176.824 295.606 176.644 295.529 176.512 295.396C176.379 295.263 176.303 295.083 176.299 294.895C176.296 294.707 176.366 294.525 176.494 294.387C176.622 294.25 176.799 294.167 176.987 294.157C177.924 294.126 178.858 294.036 179.784 293.889C179.975 293.859 180.169 293.905 180.325 294.018C180.481 294.131 180.586 294.301 180.616 294.491C180.647 294.681 180.601 294.876 180.488 295.032C180.375 295.188 180.204 295.293 180.014 295.323C179.029 295.48 178.035 295.576 177.038 295.609L177.012 295.609ZM174.111 295.555C174.094 295.555 174.077 295.555 174.06 295.554C173.073 295.484 172.089 295.372 171.112 295.217C171.017 295.202 170.927 295.169 170.845 295.119C170.764 295.07 170.693 295.004 170.637 294.927C170.581 294.85 170.54 294.763 170.518 294.67C170.495 294.577 170.491 294.481 170.506 294.387C170.537 294.197 170.642 294.027 170.797 293.914C170.952 293.801 171.146 293.753 171.336 293.782C172.272 293.93 173.214 294.037 174.159 294.104C174.348 294.115 174.526 294.199 174.654 294.339C174.782 294.479 174.85 294.664 174.844 294.853C174.837 295.043 174.757 295.222 174.62 295.353C174.483 295.485 174.301 295.557 174.111 295.555ZM182.724 294.671C182.551 294.67 182.383 294.608 182.252 294.494C182.121 294.381 182.035 294.225 182.009 294.054C181.982 293.883 182.018 293.708 182.109 293.561C182.201 293.414 182.342 293.304 182.507 293.252C183.393 292.975 184.255 292.626 185.084 292.209C185.17 292.166 185.262 292.14 185.358 292.133C185.453 292.126 185.548 292.137 185.639 292.167C185.73 292.197 185.813 292.244 185.886 292.306C185.958 292.369 186.018 292.445 186.061 292.53C186.104 292.615 186.129 292.708 186.137 292.803C186.144 292.898 186.132 292.994 186.102 293.084C186.073 293.175 186.025 293.259 185.963 293.331C185.901 293.403 185.825 293.463 185.74 293.506C184.839 293.959 183.903 294.338 182.941 294.638C182.871 294.66 182.797 294.671 182.724 294.671ZM168.374 294.664C168.315 294.664 168.257 294.657 168.199 294.643C167.223 294.404 166.266 294.089 165.338 293.701C165.25 293.665 165.17 293.611 165.103 293.543C165.036 293.475 164.982 293.395 164.946 293.307C164.91 293.218 164.892 293.124 164.892 293.028C164.893 292.933 164.912 292.838 164.95 292.75C165.024 292.573 165.166 292.433 165.345 292.36C165.523 292.287 165.722 292.288 165.9 292.362C166.759 292.72 167.644 293.011 168.548 293.233C168.721 293.275 168.873 293.379 168.974 293.525C169.075 293.671 169.119 293.849 169.098 294.026C169.076 294.203 168.991 294.365 168.857 294.483C168.724 294.6 168.552 294.665 168.374 294.664ZM163.054 292.405C162.917 292.405 162.78 292.367 162.658 292.287C161.808 291.734 161.012 291.102 160.28 290.4C160.142 290.266 160.061 290.083 160.058 289.89C160.054 289.698 160.127 289.512 160.261 289.373C160.394 289.234 160.577 289.154 160.77 289.15C160.963 289.146 161.149 289.219 161.288 289.353C161.953 289.992 162.677 290.567 163.45 291.07C163.582 291.155 163.682 291.281 163.736 291.428C163.791 291.575 163.796 291.736 163.751 291.886C163.707 292.036 163.615 292.168 163.489 292.262C163.363 292.355 163.21 292.405 163.054 292.405ZM187.876 292.057C187.724 292.057 187.575 292.009 187.451 291.92C187.327 291.831 187.235 291.705 187.187 291.56C187.139 291.415 187.138 291.259 187.183 291.113C187.229 290.967 187.32 290.84 187.442 290.749C188.184 290.195 188.874 289.576 189.505 288.898C189.638 288.764 189.818 288.687 190.007 288.683C190.196 288.679 190.379 288.749 190.517 288.878C190.655 289.007 190.738 289.184 190.748 289.373C190.757 289.562 190.693 289.747 190.569 289.889C189.878 290.63 189.122 291.308 188.31 291.914C188.185 292.007 188.033 292.057 187.876 292.057ZM158.894 288.402C158.778 288.402 158.664 288.374 158.56 288.321C158.457 288.268 158.368 288.191 158.301 288.096C157.718 287.27 157.207 286.395 156.774 285.481C156.699 285.308 156.693 285.112 156.76 284.935C156.826 284.758 156.958 284.614 157.129 284.533C157.3 284.452 157.496 284.44 157.675 284.501C157.854 284.562 158.002 284.69 158.088 284.858C158.483 285.696 158.952 286.498 159.487 287.254C159.542 287.332 159.582 287.42 159.603 287.513C159.624 287.606 159.626 287.703 159.61 287.797C159.594 287.891 159.56 287.981 159.509 288.061C159.458 288.142 159.392 288.212 159.314 288.267C159.192 288.355 159.045 288.402 158.894 288.402ZM191.819 287.826C191.688 287.826 191.56 287.791 191.448 287.725C191.335 287.658 191.243 287.563 191.181 287.448C191.118 287.333 191.088 287.204 191.092 287.074C191.097 286.943 191.137 286.817 191.208 286.707C192.096 285.327 192.442 284.29 192.445 284.28C192.504 284.097 192.634 283.945 192.806 283.858C192.978 283.77 193.177 283.755 193.36 283.814C193.543 283.874 193.695 284.004 193.783 284.176C193.87 284.347 193.886 284.547 193.826 284.73C193.811 284.779 193.426 285.943 192.43 287.493C192.291 287.709 192.057 287.826 191.819 287.826ZM156.401 283.184C156.245 283.183 156.092 283.133 155.967 283.039C155.841 282.945 155.749 282.814 155.705 282.664C155.421 281.702 155.205 280.721 155.058 279.729C155.044 279.635 155.048 279.539 155.071 279.446C155.094 279.353 155.136 279.266 155.192 279.19C155.249 279.113 155.321 279.048 155.402 278.999C155.484 278.95 155.575 278.918 155.669 278.904C156.056 278.854 156.437 279.118 156.494 279.515C156.632 280.44 156.834 281.354 157.098 282.251C157.13 282.36 157.136 282.474 157.117 282.585C157.097 282.696 157.051 282.801 156.983 282.892C156.916 282.982 156.828 283.056 156.727 283.106C156.626 283.157 156.514 283.184 156.401 283.184ZM155.527 277.454C155.338 277.454 155.156 277.379 155.02 277.247C154.884 277.115 154.806 276.934 154.801 276.745L154.796 276.207C154.796 275.384 154.837 274.557 154.92 273.751C154.942 273.56 155.037 273.385 155.186 273.264C155.335 273.143 155.525 273.084 155.716 273.102C156.054 273.137 156.313 273.396 156.36 273.717C156.949 273.423 157.523 273.102 158.082 272.755C158.246 272.653 158.443 272.621 158.63 272.665C158.818 272.708 158.98 272.825 159.082 272.988C159.184 273.152 159.216 273.349 159.172 273.536C159.128 273.724 159.012 273.887 158.849 273.989C158.018 274.505 157.154 274.967 156.264 275.372C156.253 275.651 156.248 275.929 156.248 276.207L156.253 276.71C156.258 276.902 156.186 277.089 156.053 277.228C155.921 277.368 155.738 277.449 155.545 277.454H155.527ZM147.451 277.283H147.436C146.423 277.261 145.415 277.149 144.422 276.946C144.234 276.908 144.068 276.795 143.962 276.635C143.856 276.474 143.818 276.278 143.856 276.089C143.896 275.901 144.009 275.736 144.169 275.63C144.33 275.524 144.526 275.486 144.715 275.524C145.606 275.706 146.532 275.81 147.467 275.83C147.659 275.832 147.843 275.911 147.978 276.048C148.113 276.186 148.187 276.371 148.185 276.564C148.183 276.757 148.105 276.941 147.967 277.076C147.829 277.21 147.644 277.285 147.451 277.283ZM150.345 277.106C150.16 277.107 149.983 277.037 149.848 276.912C149.712 276.786 149.63 276.614 149.617 276.43C149.605 276.246 149.662 276.064 149.779 275.921C149.895 275.778 150.061 275.685 150.244 275.66C151.15 275.531 152.067 275.329 152.974 275.059C153.361 274.944 153.764 275.164 153.877 275.548C153.99 275.932 153.772 276.337 153.388 276.451C152.425 276.739 151.443 276.955 150.449 277.099C150.414 277.104 150.38 277.106 150.345 277.106ZM141.79 276.117C141.698 276.117 141.604 276.1 141.515 276.063C140.578 275.677 139.678 275.208 138.826 274.659C138.664 274.555 138.55 274.39 138.51 274.202C138.469 274.014 138.504 273.817 138.609 273.655C138.713 273.493 138.877 273.379 139.065 273.338C139.254 273.298 139.45 273.333 139.612 273.438C140.39 273.938 141.211 274.367 142.065 274.719C142.222 274.783 142.351 274.899 142.431 275.047C142.511 275.195 142.537 275.367 142.504 275.532C142.472 275.697 142.383 275.846 142.252 275.953C142.122 276.06 141.959 276.118 141.79 276.117ZM136.92 273.006C136.746 273.006 136.571 272.944 136.432 272.818C135.691 272.143 134.997 271.417 134.357 270.645C134.296 270.572 134.25 270.487 134.222 270.396C134.193 270.305 134.183 270.209 134.192 270.114C134.201 270.019 134.228 269.926 134.273 269.842C134.317 269.757 134.378 269.682 134.451 269.621C134.525 269.56 134.609 269.514 134.701 269.486C134.792 269.458 134.888 269.448 134.983 269.456C135.078 269.465 135.17 269.493 135.255 269.537C135.339 269.582 135.414 269.642 135.475 269.716C136.071 270.436 136.717 271.112 137.409 271.741C137.518 271.839 137.594 271.969 137.628 272.111C137.661 272.254 137.651 272.404 137.598 272.541C137.546 272.678 137.452 272.796 137.331 272.879C137.21 272.962 137.067 273.006 136.92 273.006ZM160.816 272.395C160.667 272.395 160.521 272.35 160.399 272.265C160.277 272.179 160.183 272.058 160.132 271.918C160.081 271.778 160.074 271.626 160.113 271.481C160.152 271.337 160.234 271.209 160.348 271.113C161.105 270.474 161.76 269.814 162.29 269.15C162.413 269.009 162.587 268.92 162.774 268.903C162.961 268.886 163.147 268.942 163.294 269.059C163.44 269.177 163.536 269.346 163.56 269.532C163.585 269.718 163.536 269.907 163.425 270.058C162.834 270.796 162.115 271.524 161.285 272.224C161.154 272.335 160.988 272.395 160.816 272.395ZM156.129 271.688C156.019 271.689 155.911 271.664 155.812 271.616C155.713 271.568 155.626 271.498 155.558 271.412C155.49 271.326 155.443 271.225 155.419 271.118C155.396 271.01 155.397 270.899 155.423 270.792C155.656 269.809 155.97 268.848 156.362 267.917C156.438 267.74 156.581 267.6 156.759 267.528C156.938 267.457 157.138 267.459 157.315 267.534C157.684 267.691 157.856 268.118 157.698 268.487C157.338 269.343 157.049 270.228 156.836 271.132C156.797 271.291 156.707 271.432 156.579 271.532C156.451 271.633 156.292 271.688 156.129 271.688ZM133.198 268.569C133.077 268.569 132.958 268.539 132.852 268.481C132.745 268.423 132.655 268.34 132.589 268.239C132.048 267.41 131.544 266.557 131.077 265.685C131.032 265.6 131.004 265.508 130.995 265.413C130.986 265.318 130.995 265.223 131.023 265.131C131.051 265.04 131.096 264.955 131.157 264.882C131.217 264.808 131.292 264.747 131.376 264.702C131.46 264.657 131.553 264.629 131.648 264.62C131.743 264.61 131.839 264.62 131.93 264.648C132.021 264.675 132.106 264.721 132.18 264.781C132.254 264.842 132.315 264.917 132.36 265.001C132.806 265.837 133.289 266.652 133.806 267.446C133.877 267.556 133.918 267.683 133.923 267.813C133.928 267.944 133.897 268.073 133.835 268.188C133.773 268.303 133.681 268.399 133.569 268.466C133.457 268.533 133.328 268.568 133.198 268.569ZM164.261 267.808C164.149 267.808 164.038 267.782 163.938 267.732C163.837 267.682 163.75 267.61 163.682 267.52C163.614 267.431 163.568 267.327 163.547 267.217C163.526 267.107 163.531 266.993 163.561 266.885C163.63 266.64 163.665 266.408 163.665 266.195C163.665 265.702 163.486 265.34 163.1 265.055C163.024 264.998 162.959 264.927 162.91 264.845C162.861 264.763 162.828 264.673 162.814 264.578C162.801 264.484 162.805 264.388 162.828 264.295C162.852 264.203 162.893 264.116 162.95 264.039C163.006 263.962 163.078 263.897 163.159 263.848C163.241 263.799 163.332 263.766 163.426 263.752C163.521 263.738 163.617 263.743 163.709 263.766C163.802 263.789 163.889 263.831 163.966 263.888C164.719 264.446 165.117 265.244 165.117 266.195C165.117 266.541 165.065 266.905 164.96 267.278C164.917 267.43 164.826 267.565 164.7 267.66C164.574 267.756 164.42 267.808 164.261 267.808ZM158.481 266.421C158.344 266.422 158.21 266.383 158.094 266.311C157.978 266.238 157.885 266.134 157.826 266.011C157.767 265.888 157.743 265.75 157.759 265.614C157.774 265.478 157.828 265.349 157.913 265.243C158.715 264.236 159.606 263.579 160.56 263.29C160.652 263.262 160.748 263.253 160.842 263.262C160.937 263.272 161.029 263.3 161.114 263.345C161.198 263.39 161.272 263.451 161.332 263.525C161.393 263.599 161.438 263.683 161.466 263.775C161.493 263.866 161.503 263.962 161.493 264.057C161.484 264.152 161.456 264.244 161.411 264.328C161.366 264.412 161.305 264.486 161.231 264.547C161.157 264.607 161.072 264.653 160.981 264.68C160.324 264.879 159.656 265.387 159.049 266.148C158.905 266.328 158.694 266.421 158.481 266.421ZM130.489 263.438C130.203 263.438 129.931 263.268 129.815 262.985C129.441 262.06 129.122 261.113 128.862 260.15C128.837 260.058 128.831 259.962 128.843 259.867C128.855 259.773 128.886 259.681 128.934 259.599C128.981 259.516 129.045 259.444 129.12 259.386C129.196 259.328 129.282 259.285 129.374 259.26C129.466 259.235 129.562 259.229 129.656 259.241C129.751 259.253 129.842 259.284 129.925 259.332C130.007 259.379 130.08 259.443 130.138 259.518C130.196 259.594 130.239 259.68 130.263 259.772C130.509 260.678 130.809 261.569 131.163 262.439C131.207 262.55 131.224 262.669 131.212 262.788C131.199 262.906 131.158 263.019 131.092 263.118C131.025 263.217 130.935 263.297 130.83 263.353C130.725 263.409 130.608 263.438 130.489 263.438ZM128.997 257.839C128.82 257.839 128.65 257.774 128.517 257.657C128.385 257.54 128.3 257.379 128.277 257.204C128.172 256.374 128.12 255.539 128.12 254.703L128.127 254.195C128.137 253.796 128.494 253.481 128.872 253.488C129.273 253.499 129.589 253.833 129.58 254.234L129.573 254.704C129.571 255.461 129.621 256.24 129.719 257.022C129.732 257.124 129.722 257.228 129.692 257.327C129.662 257.425 129.611 257.516 129.542 257.593C129.474 257.671 129.39 257.733 129.296 257.775C129.202 257.817 129.1 257.839 128.997 257.839ZM129.16 252.056C129.053 252.056 128.947 252.033 128.85 251.988C128.754 251.943 128.668 251.876 128.6 251.794C128.531 251.712 128.482 251.615 128.455 251.512C128.429 251.408 128.425 251.3 128.445 251.195C128.631 250.211 128.899 249.231 129.244 248.283C129.277 248.194 129.327 248.111 129.391 248.041C129.455 247.971 129.533 247.914 129.619 247.874C129.706 247.833 129.799 247.81 129.895 247.806C129.99 247.802 130.085 247.817 130.175 247.849C130.264 247.882 130.346 247.932 130.417 247.996C130.487 248.061 130.544 248.138 130.584 248.225C130.625 248.311 130.648 248.404 130.652 248.5C130.656 248.595 130.641 248.69 130.609 248.78C130.457 249.197 130.322 249.621 130.203 250.049C130.901 250.176 131.59 250.252 132.258 250.276C132.658 250.289 132.972 250.625 132.959 251.027C132.945 251.427 132.619 251.791 132.207 251.727C131.423 251.699 130.643 251.611 129.872 251.465C129.841 251.631 129.753 251.781 129.623 251.889C129.493 251.997 129.329 252.056 129.16 252.056ZM135.12 251.503C134.952 251.502 134.79 251.444 134.661 251.338C134.531 251.231 134.442 251.083 134.41 250.919C134.391 250.825 134.391 250.729 134.409 250.635C134.427 250.541 134.464 250.452 134.517 250.373C134.57 250.293 134.638 250.225 134.718 250.172C134.797 250.119 134.886 250.082 134.98 250.064C135.87 249.887 136.733 249.597 137.549 249.201C137.722 249.122 137.918 249.114 138.096 249.179C138.274 249.243 138.42 249.374 138.503 249.544C138.586 249.715 138.599 249.911 138.54 250.091C138.48 250.27 138.353 250.42 138.185 250.507C137.257 250.957 136.275 251.287 135.263 251.488C135.216 251.498 135.168 251.503 135.12 251.503ZM126.587 250.478C126.498 250.478 126.408 250.462 126.321 250.428C125.394 250.062 124.489 249.641 123.611 249.17C123.527 249.125 123.452 249.064 123.392 248.99C123.331 248.916 123.286 248.831 123.258 248.74C123.23 248.649 123.221 248.553 123.23 248.458C123.24 248.363 123.267 248.271 123.312 248.187C123.357 248.103 123.418 248.029 123.492 247.968C123.566 247.908 123.651 247.862 123.742 247.834C123.833 247.807 123.929 247.797 124.024 247.807C124.119 247.816 124.211 247.844 124.295 247.889C125.124 248.333 125.978 248.729 126.853 249.076C127.226 249.223 127.41 249.644 127.264 250.018C127.21 250.154 127.117 250.27 126.996 250.352C126.875 250.434 126.733 250.478 126.587 250.478ZM140.281 248.983C140.133 248.983 139.988 248.938 139.867 248.853C139.745 248.769 139.652 248.649 139.6 248.511C139.548 248.372 139.54 248.22 139.577 248.077C139.614 247.933 139.693 247.805 139.806 247.708C140.491 247.113 141.096 246.433 141.609 245.684C141.72 245.533 141.887 245.431 142.072 245.4C142.257 245.369 142.448 245.41 142.603 245.516C142.758 245.622 142.867 245.784 142.905 245.969C142.943 246.153 142.909 246.344 142.809 246.504C142.226 247.356 141.536 248.129 140.756 248.806C140.62 248.925 140.45 248.983 140.281 248.983ZM121.459 247.768C121.321 247.768 121.184 247.729 121.061 247.648C120.232 247.107 119.428 246.53 118.65 245.919C118.499 245.8 118.401 245.625 118.379 245.434C118.356 245.243 118.41 245.05 118.53 244.899C118.649 244.748 118.823 244.65 119.015 244.628C119.206 244.605 119.398 244.659 119.55 244.779C120.295 245.363 121.065 245.916 121.857 246.434C121.988 246.52 122.088 246.645 122.142 246.792C122.195 246.939 122.2 247.099 122.155 247.249C122.111 247.399 122.019 247.53 121.893 247.624C121.768 247.717 121.616 247.768 121.459 247.768ZM131.133 246.619C131.007 246.619 130.882 246.586 130.772 246.523C130.662 246.46 130.571 246.37 130.507 246.26C130.442 246.151 130.408 246.027 130.407 245.9C130.406 245.774 130.438 245.649 130.5 245.538C130.99 244.659 131.548 243.82 132.169 243.028C132.228 242.952 132.301 242.889 132.384 242.842C132.467 242.795 132.559 242.765 132.654 242.753C132.748 242.741 132.845 242.749 132.937 242.775C133.029 242.801 133.114 242.844 133.189 242.904C133.504 243.151 133.56 243.608 133.313 243.923C132.739 244.656 132.222 245.433 131.768 246.246C131.636 246.485 131.388 246.619 131.133 246.619ZM143.511 244.231C143.396 244.231 143.283 244.203 143.18 244.151C143.078 244.098 142.99 244.022 142.922 243.929C142.855 243.836 142.811 243.728 142.793 243.614C142.776 243.5 142.785 243.384 142.822 243.275C143.069 242.535 143.199 241.802 143.199 241.151C143.199 241.002 143.192 240.857 143.178 240.714C143.169 240.619 143.178 240.524 143.206 240.433C143.234 240.341 143.28 240.257 143.341 240.183C143.401 240.11 143.476 240.049 143.56 240.004C143.645 239.959 143.737 239.932 143.832 239.923C144.228 239.879 144.585 240.177 144.625 240.577C144.642 240.763 144.652 240.955 144.652 241.151C144.652 241.966 144.5 242.836 144.201 243.734C144.153 243.879 144.06 244.005 143.936 244.094C143.812 244.183 143.664 244.231 143.511 244.231ZM116.914 244.164C116.731 244.164 116.548 244.095 116.406 243.958C115.691 243.259 115.02 242.516 114.4 241.731C114.335 241.657 114.287 241.571 114.256 241.477C114.226 241.383 114.215 241.284 114.225 241.186C114.234 241.088 114.263 240.993 114.31 240.907C114.357 240.82 114.421 240.744 114.499 240.683C114.576 240.622 114.665 240.578 114.76 240.552C114.855 240.527 114.954 240.521 115.052 240.535C115.149 240.549 115.243 240.583 115.327 240.634C115.411 240.685 115.483 240.753 115.541 240.833C116.122 241.568 116.75 242.264 117.421 242.918C117.524 243.019 117.595 243.148 117.624 243.29C117.653 243.431 117.64 243.577 117.585 243.711C117.531 243.844 117.438 243.959 117.319 244.039C117.199 244.12 117.058 244.163 116.914 244.164ZM134.71 242.068C134.564 242.068 134.421 242.025 134.299 241.942C134.178 241.86 134.085 241.743 134.032 241.607C133.979 241.47 133.968 241.321 134.001 241.178C134.034 241.036 134.11 240.907 134.218 240.808C134.961 240.118 135.765 239.497 136.621 238.953C136.784 238.85 136.981 238.816 137.169 238.859C137.357 238.902 137.52 239.017 137.622 239.18C137.725 239.343 137.759 239.54 137.716 239.728C137.673 239.916 137.558 240.079 137.395 240.181C136.614 240.678 135.88 241.245 135.202 241.875C135.068 241.999 134.892 242.068 134.71 242.068ZM113.36 239.596C113.231 239.596 113.104 239.562 112.992 239.496C112.881 239.43 112.789 239.336 112.726 239.223C112.232 238.339 111.82 237.411 111.494 236.451C111.464 236.361 111.451 236.265 111.458 236.17C111.464 236.075 111.489 235.982 111.531 235.897C111.573 235.811 111.632 235.735 111.704 235.672C111.776 235.61 111.859 235.562 111.949 235.531C112.04 235.5 112.136 235.487 112.231 235.493C112.326 235.499 112.42 235.524 112.505 235.567C112.591 235.609 112.668 235.668 112.73 235.741C112.793 235.813 112.841 235.897 112.87 235.988C113.168 236.863 113.544 237.71 113.994 238.517C114.056 238.628 114.087 238.752 114.086 238.879C114.084 239.005 114.05 239.129 113.986 239.238C113.922 239.347 113.83 239.438 113.721 239.5C113.611 239.563 113.487 239.596 113.36 239.596ZM139.626 239.052C139.315 239.052 139.027 238.85 138.931 238.537C138.875 238.353 138.894 238.154 138.984 237.984C139.075 237.814 139.229 237.687 139.413 237.631C140.736 237.226 141.907 237.222 142.771 237.611C143.135 237.775 143.298 238.206 143.134 238.571C142.968 238.937 142.538 239.099 142.172 238.935C141.645 238.697 140.804 238.726 139.838 239.02C139.77 239.041 139.698 239.052 139.626 239.052ZM111.53 234.12C111.354 234.12 111.184 234.055 111.052 233.939C110.919 233.822 110.834 233.662 110.811 233.487C110.682 232.478 110.651 231.459 110.718 230.444C110.747 230.044 111.097 229.755 111.493 229.77C111.685 229.783 111.864 229.872 111.991 230.018C112.118 230.163 112.181 230.353 112.168 230.545C112.147 230.864 112.136 231.184 112.136 231.503C112.137 232.104 112.176 232.705 112.252 233.301C112.265 233.403 112.257 233.507 112.226 233.606C112.196 233.705 112.145 233.796 112.077 233.874C112.008 233.951 111.924 234.013 111.83 234.056C111.736 234.098 111.634 234.12 111.53 234.12ZM111.904 228.356C111.794 228.356 111.685 228.331 111.585 228.282C111.486 228.233 111.399 228.163 111.331 228.075C111.263 227.988 111.216 227.886 111.194 227.778C111.171 227.669 111.174 227.557 111.201 227.45C111.453 226.466 111.794 225.508 112.22 224.587C112.26 224.5 112.317 224.423 112.387 224.358C112.458 224.294 112.54 224.244 112.63 224.211C112.719 224.179 112.814 224.164 112.91 224.168C113.005 224.172 113.099 224.195 113.185 224.236C113.271 224.276 113.349 224.333 113.413 224.403C113.478 224.474 113.528 224.556 113.56 224.645C113.593 224.735 113.608 224.83 113.603 224.926C113.599 225.021 113.576 225.114 113.536 225.201C113.147 226.04 112.837 226.913 112.608 227.81C112.569 227.966 112.478 228.105 112.35 228.204C112.223 228.303 112.066 228.357 111.904 228.356ZM278.216 197.766C278.121 197.768 278.026 197.752 277.937 197.717C277.848 197.683 277.767 197.632 277.698 197.566C277.559 197.433 277.478 197.25 277.473 197.057C277.469 196.865 277.541 196.679 277.674 196.539C277.807 196.4 277.99 196.319 278.182 196.315C279.111 196.269 280.035 196.15 280.946 195.959C281.039 195.939 281.136 195.938 281.229 195.956C281.323 195.973 281.413 196.009 281.493 196.062C281.572 196.114 281.641 196.181 281.695 196.26C281.749 196.339 281.786 196.428 281.806 196.521C281.825 196.615 281.826 196.711 281.809 196.805C281.791 196.898 281.755 196.988 281.703 197.067C281.651 197.147 281.583 197.216 281.504 197.27C281.426 197.323 281.337 197.361 281.244 197.381C280.258 197.588 279.257 197.717 278.251 197.766L278.216 197.766ZM275.318 197.663C275.288 197.663 275.258 197.662 275.23 197.658C274.226 197.537 273.234 197.329 272.266 197.038C272.175 197.01 272.09 196.965 272.016 196.904C271.942 196.844 271.881 196.77 271.836 196.686C271.791 196.602 271.763 196.51 271.753 196.415C271.744 196.32 271.753 196.224 271.781 196.133C271.808 196.042 271.854 195.957 271.914 195.883C271.974 195.809 272.049 195.748 272.133 195.703C272.217 195.658 272.309 195.63 272.404 195.62C272.498 195.611 272.594 195.62 272.686 195.648C273.568 195.914 274.483 196.105 275.402 196.216C275.584 196.241 275.75 196.333 275.866 196.474C275.983 196.616 276.042 196.796 276.031 196.979C276.02 197.162 275.941 197.334 275.809 197.461C275.676 197.588 275.501 197.66 275.318 197.663ZM283.884 196.595C283.714 196.594 283.549 196.533 283.419 196.423C283.289 196.314 283.201 196.162 283.172 195.994C283.142 195.826 283.172 195.654 283.257 195.506C283.342 195.358 283.476 195.245 283.636 195.186C284.101 195.016 284.567 194.826 285.039 194.616C285.434 194.438 285.822 194.25 286.199 194.05C286.283 194.003 286.376 193.974 286.473 193.963C286.569 193.952 286.666 193.961 286.759 193.988C286.852 194.016 286.938 194.062 287.013 194.123C287.088 194.184 287.149 194.26 287.195 194.345C287.24 194.431 287.268 194.525 287.276 194.621C287.284 194.717 287.274 194.815 287.244 194.907C287.214 194.999 287.167 195.084 287.104 195.157C287.041 195.231 286.964 195.291 286.877 195.334C285.991 195.801 285.074 196.208 284.132 196.551C284.052 196.58 283.968 196.594 283.884 196.595ZM269.783 195.995C269.673 195.995 269.562 195.97 269.457 195.918C268.555 195.463 267.693 194.933 266.881 194.333C266.726 194.219 266.622 194.048 266.594 193.857C266.565 193.667 266.613 193.473 266.727 193.318C266.842 193.163 267.013 193.059 267.203 193.031C267.394 193.002 267.588 193.05 267.743 193.164C268.489 193.716 269.28 194.202 270.109 194.619C270.255 194.692 270.372 194.813 270.441 194.961C270.511 195.109 270.528 195.276 270.49 195.436C270.452 195.595 270.362 195.736 270.234 195.838C270.106 195.94 269.947 195.995 269.783 195.995ZM289.001 193.883C288.847 193.884 288.697 193.836 288.573 193.745C288.448 193.655 288.356 193.528 288.308 193.382C288.261 193.236 288.261 193.079 288.308 192.933C288.356 192.786 288.449 192.659 288.573 192.569C289.327 192.019 290.04 191.416 290.707 190.763C290.846 190.636 291.029 190.568 291.218 190.573C291.406 190.578 291.585 190.656 291.717 190.791C291.849 190.926 291.923 191.107 291.924 191.295C291.925 191.484 291.853 191.666 291.723 191.802C291.005 192.504 290.238 193.153 289.427 193.744C289.304 193.835 289.154 193.884 289.001 193.883ZM265.135 192.556C265.036 192.556 264.939 192.537 264.849 192.498C264.759 192.459 264.677 192.403 264.61 192.331C263.911 191.6 263.277 190.808 262.718 189.965C262.611 189.804 262.573 189.608 262.611 189.419C262.65 189.23 262.761 189.064 262.922 188.957C263.083 188.851 263.279 188.813 263.468 188.851C263.657 188.889 263.823 189.001 263.929 189.162C264.441 189.934 265.021 190.659 265.661 191.328C265.759 191.431 265.826 191.56 265.852 191.701C265.877 191.841 265.861 191.986 265.805 192.117C265.749 192.248 265.655 192.359 265.536 192.437C265.417 192.516 265.277 192.557 265.135 192.556ZM293.139 189.841C293.004 189.841 292.87 189.802 292.755 189.731C292.64 189.659 292.547 189.556 292.487 189.434C292.427 189.312 292.403 189.176 292.416 189.041C292.43 188.906 292.481 188.777 292.564 188.67C293.137 187.927 293.661 187.149 294.134 186.34C294.182 186.258 294.246 186.186 294.322 186.128C294.398 186.07 294.484 186.028 294.577 186.004C294.669 185.98 294.765 185.974 294.859 185.987C294.954 186 295.045 186.031 295.127 186.08C295.21 186.128 295.282 186.192 295.34 186.268C295.397 186.344 295.439 186.43 295.464 186.522C295.488 186.615 295.493 186.711 295.481 186.805C295.468 186.9 295.436 186.991 295.388 187.073C294.884 187.937 294.325 188.767 293.714 189.559C293.646 189.647 293.559 189.718 293.459 189.766C293.36 189.815 293.25 189.841 293.139 189.841ZM261.948 187.734C261.665 187.734 261.395 187.567 261.279 187.289C260.882 186.35 260.583 185.373 260.386 184.373C260.35 184.184 260.39 183.988 260.497 183.828C260.605 183.668 260.772 183.558 260.961 183.521C261.151 183.485 261.347 183.524 261.506 183.632C261.666 183.74 261.777 183.907 261.813 184.096C261.99 184.998 262.26 185.879 262.618 186.726C262.665 186.836 262.684 186.956 262.672 187.076C262.661 187.195 262.621 187.31 262.554 187.41C262.488 187.51 262.398 187.592 262.292 187.648C262.186 187.705 262.068 187.734 261.948 187.734ZM296.079 184.845C295.958 184.844 295.84 184.814 295.734 184.756C295.628 184.699 295.538 184.616 295.472 184.515C295.406 184.414 295.366 184.298 295.356 184.178C295.346 184.058 295.366 183.937 295.414 183.826C295.791 182.961 296.124 182.077 296.411 181.178C296.476 181.003 296.607 180.859 296.775 180.777C296.943 180.696 297.137 180.682 297.315 180.739C297.493 180.796 297.643 180.919 297.732 181.084C297.822 181.248 297.845 181.44 297.796 181.621C297.493 182.568 297.142 183.499 296.745 184.41C296.625 184.683 296.358 184.845 296.079 184.845ZM260.865 182.073L260.841 182.072C260.746 182.069 260.652 182.047 260.565 182.007C260.478 181.968 260.4 181.912 260.335 181.842C260.27 181.772 260.219 181.691 260.185 181.601C260.152 181.512 260.136 181.417 260.139 181.321C260.175 180.285 260.335 179.263 260.617 178.282C260.676 178.103 260.801 177.954 260.968 177.866C261.134 177.778 261.328 177.757 261.509 177.81C261.69 177.862 261.844 177.982 261.938 178.145C262.032 178.308 262.059 178.502 262.013 178.684C261.763 179.559 261.622 180.462 261.592 181.371C261.585 181.559 261.506 181.738 261.37 181.869C261.235 181.999 261.054 182.073 260.865 182.073ZM297.855 179.319C297.746 179.319 297.639 179.295 297.541 179.248C297.443 179.201 297.357 179.133 297.289 179.049C297.221 178.964 297.172 178.865 297.148 178.759C297.123 178.654 297.122 178.544 297.145 178.438C297.346 177.526 297.51 176.584 297.633 175.636C297.662 175.448 297.763 175.279 297.915 175.164C298.067 175.05 298.258 174.999 298.447 175.024C298.635 175.049 298.807 175.147 298.924 175.296C299.042 175.446 299.095 175.636 299.074 175.825C298.945 176.806 298.775 177.782 298.563 178.748C298.528 178.91 298.439 179.055 298.31 179.159C298.181 179.263 298.02 179.319 297.855 179.319ZM262.449 176.543C262.322 176.543 262.196 176.51 262.086 176.446C261.975 176.382 261.884 176.291 261.82 176.18C261.756 176.07 261.722 175.945 261.722 175.817C261.722 175.69 261.755 175.565 261.819 175.454C262.162 174.861 262.549 174.295 262.977 173.761C263.036 173.686 263.11 173.623 263.193 173.576C263.277 173.53 263.369 173.5 263.464 173.489C263.559 173.478 263.655 173.486 263.748 173.512C263.84 173.539 263.925 173.583 264 173.643C264.075 173.703 264.137 173.777 264.183 173.861C264.23 173.945 264.259 174.037 264.269 174.132C264.279 174.227 264.271 174.324 264.243 174.416C264.216 174.507 264.171 174.593 264.111 174.667C263.729 175.145 263.384 175.65 263.079 176.179C263.015 176.29 262.923 176.382 262.813 176.446C262.702 176.51 262.577 176.543 262.449 176.543ZM298.617 173.564L298.581 173.563C298.486 173.558 298.393 173.535 298.306 173.494C298.22 173.453 298.143 173.396 298.078 173.325C298.014 173.254 297.965 173.172 297.933 173.082C297.901 172.992 297.887 172.896 297.892 172.801C297.923 172.16 297.939 171.518 297.94 170.877C297.939 170.567 297.934 170.258 297.927 169.949C297.923 169.757 297.996 169.57 298.129 169.431C298.262 169.292 298.444 169.211 298.637 169.206C299.005 169.212 299.372 169.515 299.38 169.916C299.405 170.902 299.392 171.888 299.342 172.873C299.333 173.059 299.252 173.235 299.117 173.363C298.982 173.492 298.803 173.563 298.617 173.564ZM298.475 167.761C298.106 167.761 297.791 167.481 297.753 167.106C297.66 166.16 297.531 165.218 297.365 164.282C297.349 164.188 297.351 164.091 297.372 163.998C297.392 163.905 297.431 163.817 297.486 163.739C297.54 163.661 297.61 163.594 297.69 163.543C297.771 163.492 297.86 163.457 297.954 163.44C298.048 163.424 298.144 163.426 298.238 163.446C298.331 163.467 298.419 163.506 298.497 163.561C298.575 163.615 298.642 163.685 298.693 163.765C298.744 163.846 298.779 163.935 298.796 164.029C298.967 164.998 299.102 165.984 299.2 166.962C299.21 167.064 299.198 167.166 299.166 167.262C299.134 167.358 299.082 167.447 299.014 167.522C298.946 167.597 298.863 167.657 298.77 167.699C298.677 167.74 298.576 167.761 298.475 167.761ZM297.456 162.044C297.296 162.044 297.14 161.991 297.013 161.893C296.886 161.795 296.795 161.658 296.754 161.502C296.513 160.588 296.23 159.685 295.905 158.796C295.869 158.697 295.854 158.591 295.863 158.486C295.871 158.381 295.903 158.278 295.955 158.187C296.007 158.095 296.079 158.015 296.165 157.954C296.251 157.892 296.349 157.85 296.453 157.831C296.369 157.734 296.312 157.616 296.289 157.489C296.266 157.363 296.276 157.233 296.32 157.112C296.363 156.991 296.438 156.884 296.536 156.801C296.635 156.718 296.754 156.664 296.88 156.642C297.793 156.486 298.689 156.249 299.559 155.933C299.74 155.867 299.939 155.875 300.114 155.956C300.288 156.037 300.424 156.184 300.49 156.365C300.556 156.545 300.548 156.745 300.467 156.92C300.385 157.094 300.238 157.229 300.058 157.296C299.135 157.634 298.152 157.895 297.136 158.071C297.192 158.135 297.237 158.21 297.267 158.293C297.609 159.225 297.906 160.172 298.158 161.131C298.187 161.239 298.19 161.352 298.168 161.461C298.146 161.57 298.1 161.672 298.032 161.761C297.964 161.849 297.877 161.92 297.777 161.969C297.677 162.018 297.567 162.044 297.456 162.044ZM293.752 158.357C292.885 158.357 292.003 158.304 291.127 158.198C290.935 158.174 290.762 158.076 290.643 157.924C290.524 157.773 290.471 157.58 290.494 157.389C290.542 156.99 290.917 156.717 291.303 156.755C292.12 156.854 292.944 156.905 293.753 156.905L294.102 156.902C294.438 156.909 294.834 157.215 294.841 157.615C294.848 158.016 294.529 158.347 294.128 158.354L293.752 158.357ZM288.36 157.661C288.299 157.661 288.238 157.653 288.175 157.637C287.2 157.384 286.246 157.055 285.322 156.652C285.234 156.614 285.155 156.559 285.088 156.49C285.021 156.421 284.969 156.34 284.934 156.251C284.899 156.161 284.881 156.066 284.883 155.97C284.885 155.875 284.906 155.78 284.945 155.692C284.983 155.605 285.039 155.525 285.108 155.459C285.178 155.393 285.259 155.341 285.349 155.307C285.438 155.272 285.534 155.256 285.629 155.259C285.725 155.261 285.82 155.283 285.907 155.322C286.761 155.694 287.643 155.999 288.544 156.232C288.715 156.277 288.863 156.383 288.961 156.529C289.06 156.675 289.102 156.853 289.079 157.027C289.057 157.202 288.971 157.363 288.839 157.48C288.706 157.596 288.536 157.66 288.36 157.661ZM295.435 156.605C295.3 156.605 295.169 156.568 295.054 156.497C294.94 156.426 294.847 156.326 294.787 156.205C294.37 155.372 293.89 154.573 293.349 153.815C293.237 153.658 293.191 153.463 293.222 153.273C293.253 153.083 293.359 152.913 293.515 152.8C293.672 152.688 293.867 152.642 294.057 152.673C294.247 152.704 294.417 152.81 294.53 152.966C295.114 153.786 295.634 154.65 296.083 155.551C296.139 155.662 296.166 155.785 296.161 155.909C296.156 156.033 296.119 156.154 296.054 156.259C295.989 156.365 295.898 156.452 295.789 156.513C295.681 156.573 295.559 156.605 295.435 156.605ZM302.417 156.075C302.26 156.074 302.106 156.022 301.981 155.927C301.855 155.832 301.764 155.698 301.721 155.547C301.677 155.395 301.685 155.234 301.741 155.087C301.798 154.94 301.9 154.815 302.034 154.731C302.382 154.515 302.721 154.281 303.051 154.026C303.465 153.708 303.872 153.382 304.272 153.047C304.346 152.986 304.43 152.94 304.521 152.912C304.612 152.883 304.708 152.873 304.803 152.882C304.898 152.89 304.99 152.917 305.075 152.962C305.159 153.006 305.234 153.066 305.295 153.14C305.356 153.213 305.402 153.297 305.431 153.388C305.459 153.48 305.47 153.575 305.461 153.67C305.452 153.765 305.425 153.858 305.381 153.942C305.337 154.027 305.276 154.102 305.203 154.163C304.788 154.51 304.365 154.848 303.936 155.178C303.571 155.459 303.192 155.722 302.8 155.965C302.685 156.037 302.553 156.075 302.417 156.075ZM283.116 155.243C282.954 155.243 282.793 155.19 282.658 155.08C281.589 154.209 281.023 153.266 281.023 152.352C281.023 152.223 281.034 152.093 281.057 151.964C281.073 151.87 281.109 151.78 281.16 151.7C281.212 151.62 281.279 151.55 281.357 151.496C281.436 151.441 281.525 151.403 281.618 151.383C281.712 151.363 281.808 151.362 281.902 151.38C282.297 151.451 282.558 151.83 282.487 152.224C282.475 152.801 282.877 153.384 283.575 153.953C283.887 154.206 283.934 154.664 283.68 154.976C283.536 155.151 283.326 155.243 283.116 155.243ZM306.892 152.383C306.748 152.383 306.607 152.341 306.487 152.26C306.367 152.18 306.274 152.066 306.219 151.933C306.164 151.799 306.15 151.653 306.179 151.511C306.208 151.37 306.278 151.241 306.381 151.139C307.055 150.476 307.698 149.782 308.308 149.058C308.369 148.985 308.444 148.925 308.529 148.881C308.613 148.837 308.706 148.81 308.801 148.802C308.896 148.793 308.992 148.804 309.082 148.833C309.173 148.862 309.258 148.908 309.331 148.969C309.404 149.031 309.464 149.106 309.508 149.19C309.552 149.275 309.579 149.368 309.588 149.463C309.596 149.558 309.585 149.653 309.557 149.744C309.528 149.835 309.481 149.92 309.42 149.993C308.781 150.75 308.108 151.478 307.403 152.174C307.267 152.308 307.083 152.383 306.892 152.383ZM292.001 151.963C291.832 151.963 291.665 151.906 291.528 151.788C290.806 151.165 290.051 150.718 289.285 150.456C289.194 150.425 289.111 150.377 289.039 150.314C288.967 150.251 288.909 150.174 288.867 150.089C288.824 150.003 288.8 149.91 288.793 149.815C288.787 149.72 288.8 149.624 288.831 149.534C288.893 149.352 289.026 149.202 289.198 149.117C289.371 149.032 289.57 149.019 289.753 149.081C290.696 149.402 291.611 149.943 292.475 150.686C292.588 150.783 292.668 150.912 292.705 151.055C292.742 151.199 292.735 151.35 292.683 151.49C292.631 151.629 292.538 151.749 292.417 151.833C292.295 151.918 292.15 151.963 292.001 151.963ZM283.844 150.965C283.553 150.965 283.279 150.79 283.167 150.503C283.133 150.414 283.116 150.319 283.118 150.223C283.12 150.128 283.141 150.034 283.179 149.947C283.218 149.859 283.273 149.781 283.342 149.715C283.411 149.649 283.493 149.597 283.582 149.563C284.379 149.252 285.376 149.002 286.546 148.819C286.736 148.792 286.929 148.839 287.084 148.953C287.239 149.066 287.344 149.236 287.375 149.425C287.438 149.821 287.166 150.193 286.77 150.255C285.704 150.421 284.809 150.644 284.107 150.916C284.023 150.949 283.934 150.966 283.844 150.965ZM310.607 147.931C310.476 147.931 310.347 147.895 310.234 147.828C310.121 147.76 310.028 147.663 309.966 147.547C309.904 147.431 309.875 147.3 309.881 147.169C309.888 147.037 309.93 146.91 310.003 146.801C310.525 146.021 310.999 145.209 311.423 144.372C311.465 144.286 311.524 144.21 311.596 144.148C311.669 144.085 311.752 144.038 311.843 144.008C311.933 143.978 312.029 143.966 312.124 143.973C312.219 143.98 312.312 144.006 312.397 144.049C312.756 144.229 312.9 144.665 312.719 145.025C312.27 145.916 311.766 146.778 311.211 147.608C311.071 147.818 310.842 147.931 310.607 147.931ZM313.199 142.751C313.084 142.751 312.97 142.723 312.867 142.67C312.764 142.618 312.676 142.541 312.608 142.447C312.541 142.353 312.497 142.244 312.48 142.13C312.463 142.016 312.474 141.899 312.511 141.79C312.814 140.906 313.053 140.002 313.228 139.084C313.245 138.991 313.281 138.901 313.333 138.821C313.385 138.742 313.453 138.673 313.531 138.619C313.61 138.565 313.699 138.527 313.792 138.508C313.885 138.488 313.981 138.487 314.075 138.505C314.169 138.522 314.258 138.558 314.338 138.61C314.418 138.662 314.487 138.73 314.54 138.808C314.594 138.887 314.632 138.976 314.652 139.069C314.671 139.162 314.672 139.259 314.655 139.352C314.468 140.338 314.211 141.31 313.887 142.259C313.784 142.561 313.502 142.751 313.199 142.751ZM314.267 137.061L314.239 137.061C314.047 137.053 313.865 136.969 313.735 136.828C313.604 136.687 313.534 136.5 313.541 136.307C313.578 135.374 313.547 134.439 313.449 133.51C313.439 133.415 313.447 133.319 313.474 133.228C313.501 133.136 313.546 133.051 313.606 132.977C313.666 132.903 313.74 132.841 313.824 132.796C313.908 132.75 314 132.722 314.095 132.712C314.479 132.661 314.851 132.958 314.893 133.357C314.999 134.356 315.033 135.36 314.994 136.363C314.986 136.551 314.907 136.728 314.771 136.858C314.636 136.988 314.455 137.061 314.267 137.061ZM313.662 131.302C313.5 131.302 313.342 131.248 313.214 131.148C313.087 131.048 312.996 130.909 312.957 130.751C312.729 129.843 312.441 128.951 312.094 128.081C312.026 127.903 312.031 127.705 312.108 127.531C312.185 127.356 312.327 127.219 312.504 127.148C312.682 127.078 312.88 127.08 313.055 127.154C313.231 127.228 313.371 127.368 313.444 127.544C313.814 128.475 314.123 129.429 314.366 130.4C314.393 130.507 314.394 130.619 314.371 130.727C314.348 130.834 314.301 130.935 314.233 131.022C314.165 131.109 314.079 131.18 313.98 131.228C313.881 131.276 313.772 131.302 313.662 131.302ZM303.772 126.621C303.753 126.621 303.734 126.62 303.715 126.618C302.549 126.529 301.522 126.29 300.662 125.908C300.486 125.831 300.348 125.686 300.279 125.506C300.209 125.327 300.214 125.127 300.292 124.951C300.37 124.775 300.514 124.637 300.694 124.568C300.873 124.498 301.073 124.503 301.249 124.581C301.958 124.895 302.826 125.093 303.826 125.17C303.921 125.178 304.014 125.204 304.099 125.247C304.184 125.29 304.259 125.349 304.321 125.422C304.383 125.494 304.431 125.578 304.46 125.669C304.49 125.76 304.501 125.855 304.494 125.95C304.48 126.133 304.398 126.303 304.265 126.427C304.131 126.551 303.955 126.621 303.772 126.621ZM306.668 126.557C306.481 126.557 306.302 126.486 306.166 126.358C306.03 126.23 305.949 126.054 305.94 125.868C305.93 125.682 305.993 125.499 306.114 125.357C306.236 125.216 306.407 125.126 306.593 125.108C307.214 125.041 307.832 124.95 308.446 124.834C308.758 124.774 309.07 124.71 309.38 124.643C309.474 124.622 309.57 124.62 309.664 124.636C309.758 124.653 309.848 124.688 309.929 124.74C310.009 124.791 310.078 124.858 310.133 124.937C310.187 125.016 310.225 125.104 310.244 125.198C310.265 125.291 310.267 125.387 310.25 125.481C310.233 125.575 310.198 125.665 310.146 125.745C310.095 125.825 310.028 125.894 309.95 125.949C309.871 126.003 309.783 126.042 309.69 126.062C309.372 126.131 309.047 126.197 308.717 126.261C308.064 126.384 307.407 126.481 306.746 126.552C306.72 126.555 306.694 126.556 306.668 126.557ZM311.521 125.917C311.267 125.917 311.02 125.783 310.887 125.545C310.431 124.727 309.92 123.94 309.359 123.19C309.249 123.035 309.204 122.844 309.234 122.657C309.263 122.469 309.364 122.301 309.516 122.188C309.668 122.074 309.858 122.024 310.046 122.049C310.234 122.073 310.405 122.17 310.522 122.319C310.962 122.907 311.372 123.516 311.752 124.145C311.837 124.033 311.955 123.944 312.1 123.896C312.985 123.6 313.849 123.242 314.683 122.823C314.769 122.78 314.861 122.754 314.957 122.747C315.052 122.74 315.147 122.751 315.238 122.781C315.329 122.811 315.413 122.858 315.485 122.921C315.557 122.983 315.617 123.059 315.66 123.144C315.703 123.229 315.729 123.322 315.736 123.417C315.743 123.513 315.732 123.608 315.702 123.699C315.672 123.79 315.625 123.873 315.562 123.946C315.5 124.018 315.424 124.077 315.339 124.12C314.442 124.57 313.514 124.955 312.563 125.272C312.455 125.31 312.344 125.319 312.239 125.305C312.212 125.475 312.125 125.631 311.993 125.743C311.861 125.856 311.694 125.917 311.521 125.917ZM298.804 124.101C298.546 124.101 298.295 123.962 298.164 123.717C297.832 123.099 297.659 122.408 297.662 121.706C297.662 121.251 297.732 120.791 297.873 120.341C297.932 120.158 298.06 120.005 298.23 119.915C298.4 119.826 298.599 119.808 298.783 119.864C299.166 119.984 299.38 120.391 299.261 120.774C299.165 121.076 299.116 121.39 299.115 121.707C299.115 122.178 299.225 122.624 299.444 123.033C299.503 123.143 299.533 123.267 299.53 123.393C299.527 123.518 299.491 123.641 299.427 123.748C299.362 123.856 299.271 123.945 299.162 124.007C299.053 124.069 298.929 124.101 298.804 124.101ZM317.471 122.663C317.319 122.664 317.171 122.617 317.047 122.529C316.923 122.44 316.83 122.315 316.781 122.172C316.732 122.028 316.73 121.872 316.774 121.726C316.818 121.581 316.907 121.453 317.028 121.361C317.754 120.807 318.415 120.172 318.998 119.468C319.059 119.394 319.133 119.333 319.217 119.288C319.301 119.243 319.394 119.216 319.489 119.206C319.584 119.197 319.679 119.207 319.771 119.235C319.862 119.263 319.946 119.309 320.02 119.37C320.094 119.43 320.155 119.505 320.2 119.589C320.245 119.673 320.272 119.765 320.282 119.86C320.291 119.955 320.281 120.051 320.254 120.142C320.226 120.234 320.18 120.318 320.119 120.392C319.467 121.181 318.727 121.892 317.913 122.513C317.782 122.615 317.626 122.663 317.471 122.663ZM308.034 121.293C307.851 121.293 307.668 121.224 307.526 121.086C306.817 120.393 306.096 119.815 305.383 119.365C305.223 119.261 305.11 119.098 305.069 118.912C305.028 118.725 305.062 118.53 305.164 118.369C305.266 118.207 305.427 118.092 305.613 118.049C305.799 118.005 305.995 118.037 306.158 118.136C306.956 118.64 307.758 119.283 308.541 120.047C308.644 120.147 308.715 120.277 308.745 120.418C308.774 120.56 308.761 120.707 308.707 120.84C308.652 120.974 308.559 121.089 308.439 121.169C308.319 121.25 308.178 121.293 308.034 121.293ZM300.304 119.029C300.146 119.03 299.993 118.979 299.866 118.885C299.74 118.79 299.648 118.657 299.604 118.506C299.56 118.355 299.567 118.193 299.623 118.046C299.679 117.899 299.781 117.774 299.914 117.69C300.861 117.091 301.977 116.839 303.171 116.981C303.266 116.992 303.358 117.022 303.441 117.068C303.524 117.115 303.598 117.178 303.657 117.253C303.716 117.327 303.759 117.413 303.785 117.505C303.811 117.597 303.818 117.693 303.807 117.788C303.783 117.978 303.685 118.152 303.534 118.271C303.384 118.39 303.192 118.445 303.001 118.423C302.134 118.323 301.364 118.492 300.691 118.916C300.572 118.993 300.437 119.029 300.304 119.029ZM321.111 118.212C320.989 118.212 320.868 118.181 320.761 118.121C320.653 118.062 320.563 117.977 320.497 117.873C320.432 117.77 320.394 117.651 320.386 117.529C320.379 117.406 320.403 117.284 320.455 117.173C320.844 116.346 321.14 115.477 321.336 114.584C321.378 114.396 321.493 114.232 321.656 114.129C321.818 114.026 322.016 113.991 322.204 114.033C322.392 114.075 322.556 114.19 322.659 114.353C322.762 114.516 322.797 114.713 322.755 114.901C322.534 115.9 322.202 116.872 321.766 117.797C321.643 118.058 321.382 118.212 321.111 118.212ZM322.402 112.59L322.378 112.59C322.283 112.587 322.189 112.565 322.102 112.525C322.015 112.486 321.937 112.43 321.872 112.36C321.806 112.29 321.756 112.208 321.722 112.119C321.688 112.03 321.673 111.935 321.676 111.839C321.683 111.639 321.686 111.439 321.686 111.238C321.686 110.534 321.644 109.796 321.561 109.042C321.549 108.855 321.61 108.671 321.73 108.527C321.851 108.384 322.022 108.293 322.208 108.272C322.394 108.252 322.581 108.304 322.729 108.418C322.878 108.531 322.977 108.698 323.006 108.883C323.093 109.665 323.137 110.451 323.139 111.238C323.139 111.455 323.136 111.672 323.129 111.889C323.122 112.077 323.043 112.255 322.907 112.386C322.771 112.517 322.591 112.59 322.402 112.59ZM321.795 106.825C321.63 106.825 321.471 106.769 321.342 106.666C321.213 106.563 321.123 106.42 321.087 106.26C320.874 105.337 320.62 104.424 320.325 103.524C320.265 103.341 320.28 103.141 320.367 102.969C320.455 102.798 320.607 102.667 320.79 102.608C320.973 102.548 321.172 102.563 321.344 102.65C321.516 102.738 321.646 102.89 321.706 103.073C322.021 104.038 322.289 105.002 322.502 105.937C322.526 106.043 322.526 106.153 322.502 106.26C322.478 106.366 322.43 106.466 322.362 106.551C322.294 106.636 322.208 106.705 322.11 106.753C322.011 106.8 321.904 106.825 321.795 106.825ZM319.996 101.301C319.712 101.301 319.444 101.134 319.326 100.857C318.668 99.2936 318.119 98.3108 318.114 98.3012C318.068 98.2181 318.038 98.1267 318.026 98.0321C318.015 97.9374 318.022 97.8415 318.048 97.7498C318.074 97.658 318.117 97.5722 318.176 97.4973C318.235 97.4223 318.308 97.3597 318.391 97.313C318.474 97.2664 318.566 97.2365 318.661 97.2251C318.755 97.2138 318.851 97.2212 318.943 97.2469C319.035 97.2726 319.12 97.3162 319.195 97.375C319.27 97.4339 319.333 97.507 319.38 97.5901C319.404 97.6326 319.971 98.6478 320.665 100.292C320.711 100.403 320.729 100.523 320.718 100.642C320.707 100.761 320.666 100.876 320.6 100.976C320.534 101.075 320.444 101.157 320.339 101.214C320.233 101.271 320.116 101.301 319.996 101.301Z" fill="#241726"/>
</g>
<defs>
<clipPath id="clip0_344_6698">
<rect width="307" height="307" fill="white" transform="translate(44 16)"/>
</clipPath>
</defs>
</svg>
