<svg width="975" height="415" viewBox="0 0 975 415" fill="none" xmlns="http://www.w3.org/2000/svg">
<g opacity="0.15" clip-path="url(#clip0_56_660)">
<path d="M312.973 331.077H268.503V409.125H160.682V331.077H0V251.35L167.814 5.87463H268.503V249.671H312.973V331.077ZM160.682 249.671V202.674C160.682 193.862 161.102 182.113 161.521 167.007C162.36 151.901 162.78 144.348 163.199 143.509H160.262C153.969 157.776 146.837 170.784 138.866 183.372L94.3954 249.671H160.682Z" fill="#2C9CF0"/>
<path d="M632.659 208.129C632.659 279.464 620.493 331.916 596.999 365.066C573.085 398.215 536.586 415 487.081 415C438.834 415 402.754 397.796 378.002 362.968C353.668 328.14 341.502 276.527 341.502 208.129C341.502 136.375 353.249 83.9231 377.582 50.3539C401.495 16.7846 437.995 0 487.5 0C535.327 0 571.827 17.6239 596.16 52.452C620.493 87.2801 632.659 138.893 632.659 208.129ZM449.742 208.129C449.742 253.868 452.679 285.339 458.133 302.123C464.006 319.328 473.236 327.72 486.661 327.72C500.086 327.72 509.736 318.908 515.609 301.284C521.063 283.66 524 252.609 524 208.129C524 163.231 521.063 132.179 515.609 114.135C509.736 96.092 500.506 87.2801 487.081 87.2801C473.656 87.2801 464.006 96.092 458.552 113.296C452.679 130.501 449.742 161.972 449.742 208.129Z" fill="#2C9CF0"/>
<path d="M975 331.077H930.529V409.125H822.709V331.077H662.027V251.35L829.841 5.87463H930.529V249.671H975V331.077ZM823.128 249.671V202.674C823.128 193.862 823.548 182.113 823.967 167.007C824.807 151.901 825.226 144.348 825.646 143.509H822.709C816.416 157.776 809.284 170.784 801.313 183.372L756.422 250.091H823.128V249.671Z" fill="#2C9CF0"/>
</g>
<path d="M112 359.509C112 359.509 326.101 369.39 530.32 369.39C734.54 369.39 863 359.509 863 359.509" stroke="#2C9CF0" stroke-width="3" stroke-miterlimit="10"/>
<path d="M503.969 211.285V254.105C503.969 270.574 494.088 280.456 494.088 280.456H484.206L461.149 306.807L451.267 346.333H444.68V359.508H408.447L410.424 355.556C413.388 349.956 418.988 346.333 425.575 346.333H431.504L454.561 277.162V221.166" stroke="#2C9CF0" stroke-width="3" stroke-miterlimit="10"/>
<path d="M490.794 280.455L533.614 339.745L529.332 343.039L533.614 349.626V359.508H500.676V359.179C502.652 351.603 509.24 346.333 517.145 346.333V343.039L474.325 293.631" stroke="#2C9CF0" stroke-width="3" stroke-miterlimit="10"/>
<path d="M454.562 250.812H503.969" stroke="#2C9CF0" stroke-width="3" stroke-miterlimit="10"/>
<path d="M424.917 211.285L441.386 244.224H444.68V213.591C444.68 194.486 457.197 158.583 457.197 158.583V142.114" stroke="#2C9CF0" stroke-width="3" stroke-miterlimit="10"/>
<path d="M494.088 211.285H263.518" stroke="#2C9CF0" stroke-width="3" stroke-miterlimit="10"/>
<path d="M559.965 155.29H569.846" stroke="#2C9CF0" stroke-width="3" stroke-miterlimit="10"/>
<path d="M559.965 165.171H569.846" stroke="#2C9CF0" stroke-width="3" stroke-miterlimit="10"/>
<path d="M559.965 175.052H569.846" stroke="#2C9CF0" stroke-width="3" stroke-miterlimit="10"/>
<path d="M503.969 155.29H553.377V175.053H542.508C526.038 175.053 510.228 169.783 496.723 160.23L494.088 158.583" stroke="#2C9CF0" stroke-width="3" stroke-miterlimit="10"/>
<path d="M503.969 135.526C503.969 135.526 503.969 151.996 503.969 155.289L501.663 155.948C490.135 159.901 477.618 160.889 465.76 159.571L457.855 158.583" stroke="#2C9CF0" stroke-width="3" stroke-miterlimit="10"/>
<path d="M436.446 108.517C435.457 114.446 438.422 120.045 444.351 122.68C449.95 124.986 456.209 123.339 459.832 118.728" stroke="#2C9CF0" stroke-width="3" stroke-miterlimit="10"/>
<path d="M520.109 105.223C520.109 105.223 508.91 89.7415 487.83 80.5187C466.749 71.2959 447.645 73.931 447.645 73.931C456.209 53.8384 490.135 41.9805 502.323 47.2507C515.498 53.1796 528.673 85.1301 520.109 105.223Z" stroke="#2C9CF0" stroke-width="3" stroke-miterlimit="10"/>
<path d="M459.831 61.4143C458.514 61.4143 457.196 61.4143 456.208 61.4143" stroke="#2C9CF0" stroke-width="3" stroke-miterlimit="10"/>
<path d="M520.439 87.4358C515.168 82.1656 505.946 73.931 492.77 68.3314C479.595 62.7319 467.407 61.4143 459.832 61.4143" stroke="#2C9CF0" stroke-width="3" stroke-miterlimit="10"/>
<path d="M522.745 90.0709C522.086 89.4121 521.427 88.4239 520.439 87.4358" stroke="#2C9CF0" stroke-width="3" stroke-miterlimit="10"/>
<path d="M547.778 133.22C542.837 135.197 536.908 132.891 534.932 127.621L533.614 124.656C528.674 126.633 522.745 124.327 520.768 119.057L519.451 116.092V102.587" stroke="#2C9CF0" stroke-width="3" stroke-miterlimit="10"/>
<path d="M504.299 91.3882L502.652 95.0115C500.676 99.6229 502.652 104.893 507.263 106.869L507.922 107.199L506.604 110.163C504.299 115.104 506.605 121.033 511.875 123.009C503.311 143.102 479.924 152.325 459.832 143.761C439.739 135.197 430.516 111.81 439.08 91.7176" stroke="#2C9CF0" stroke-width="3" stroke-miterlimit="10"/>
<path d="M510.886 124.986C507.922 131.574 511.216 139.479 517.803 142.444" stroke="#2C9CF0" stroke-width="3" stroke-miterlimit="10"/>
<path d="M553.048 94.6829L551.73 97.6473C549.425 102.588 543.825 104.894 538.884 102.918C536.579 107.858 530.979 110.164 526.038 108.188L523.074 106.87" stroke="#2C9CF0" stroke-width="3" stroke-miterlimit="10"/>
<path d="M444.68 194.816H503.969" stroke="#2C9CF0" stroke-width="3" stroke-miterlimit="10"/>
<path d="M494.088 211.285H724.658" stroke="#2C9CF0" stroke-width="3" stroke-miterlimit="10"/>
<path d="M418.329 217.872V211.285L401.86 204.697L398.566 207.991V217.872L401.86 221.166H418.329L424.917 214.579" stroke="#2C9CF0" stroke-width="3" stroke-miterlimit="10"/>
<path d="M507.263 221.166L503.969 211.285L520.439 204.697L523.732 207.991V217.872L520.439 221.166H507.263Z" stroke="#2C9CF0" stroke-width="3" stroke-miterlimit="10"/>
<path d="M447.974 72.9429C446.327 79.86 438.751 83.8126 432.163 81.1775L428.21 79.5306" stroke="#2C9CF0" stroke-width="3" stroke-miterlimit="10"/>
<defs>
<clipPath id="clip0_56_660">
<rect width="975" height="415" fill="white"/>
</clipPath>
</defs>
</svg>
