<svg width="21" height="21" viewBox="0 0 21 21" fill="none" xmlns="http://www.w3.org/2000/svg">
<path d="M19.9556 18.2319L15.3613 13.6377C16.4674 12.1652 17.0645 10.3729 17.0625 8.53125C17.0625 3.82715 13.2353 0 8.53125 0C3.82715 0 0 3.82715 0 8.53125C0 13.2353 3.82715 17.0625 8.53125 17.0625C10.3729 17.0645 12.1652 16.4674 13.6377 15.3613L18.2319 19.9556C18.4645 20.1634 18.7678 20.2744 19.0796 20.2657C19.3914 20.257 19.6881 20.1292 19.9086 19.9086C20.1292 19.6881 20.257 19.3914 20.2657 19.0796C20.2744 18.7678 20.1634 18.4645 19.9556 18.2319ZM2.4375 8.53125C2.4375 7.32602 2.79489 6.14785 3.46448 5.14574C4.13407 4.14363 5.08578 3.36258 6.19927 2.90136C7.31276 2.44014 8.53801 2.31946 9.72008 2.55459C10.9021 2.78972 11.9879 3.37009 12.8402 4.22232C13.6924 5.07454 14.2728 6.16034 14.5079 7.34241C14.743 8.52449 14.6224 9.74973 14.1611 10.8632C13.6999 11.9767 12.9189 12.9284 11.9168 13.598C10.9146 14.2676 9.73647 14.625 8.53125 14.625C6.91568 14.6231 5.36684 13.9804 4.22446 12.838C3.08208 11.6957 2.43944 10.1468 2.4375 8.53125Z" fill="#2C9CF0"/>
</svg>
